<svg xmlns="http://www.w3.org/2000/svg">
    <symbol id="config" viewBox="0 0 17 17">
        <path fill="currentColor"
            d="M8.25 5.004a3.246 3.246 0 1 0 0 6.492 3.246 3.246 0 0 0 0-6.492zM6.002 8.25a2.246 2.246 0 1 1 4.492 0 2.246 2.246 0 0 1-4.492 0z" />
        <path fill="currentColor"
            d="M10.046 1.593c-.527-1.79-3.065-1.79-3.592 0l-.094.319a.873.873 0 0 1-1.255.52l-.292-.16c-1.64-.892-3.433.902-2.54 2.54l.159.293a.873.873 0 0 1-.52 1.255l-.32.094c-1.79.527-1.79 3.065 0 3.592l.32.094a.873.873 0 0 1 .52 1.255l-.16.292c-.892 1.64.9 3.434 2.54 2.54l.293-.16a.873.873 0 0 1 1.255.52l.094.32c.527 1.79 3.065 1.79 3.592 0l.094-.32a.872.872 0 0 1 1.255-.52l.292.16c1.64.894 3.434-.901 2.54-2.54l-.16-.292a.873.873 0 0 1 .52-1.255l.32-.094c1.79-.527 1.79-3.065 0-3.592l-.32-.094a.873.873 0 0 1-.52-1.255l.16-.292c.894-1.64-.901-3.433-2.54-2.54l-.292.159a.873.873 0 0 1-1.255-.52l-.094-.32zm-2.633.283c.246-.835 1.428-.835 1.674 0l.094.319a1.873 1.873 0 0 0 2.693 1.115l.29-.16c.765-.415 1.6.42 1.185 1.185l-.16.292a1.872 1.872 0 0 0 1.117 2.692l.318.094c.835.246.835 1.428 0 1.674l-.32.094a1.873 1.873 0 0 0-1.114 2.693l.16.29c.415.765-.42 1.6-1.185 1.185l-.291-.16a1.874 1.874 0 0 0-2.693 1.117l-.094.318c-.246.835-1.428.835-1.674 0l-.094-.32a1.873 1.873 0 0 0-2.692-1.114l-.292.16c-.764.415-1.6-.42-1.184-1.185l.159-.291A1.873 1.873 0 0 0 2.195 9.18l-.32-.094c-.834-.246-.834-1.428 0-1.674l.32-.094A1.873 1.873 0 0 0 3.31 4.627l-.16-.292c-.415-.764.42-1.6 1.185-1.184l.292.159a1.873 1.873 0 0 0 2.692-1.115l.094-.32z" />
        <path fill="currentColor"
            d="M6.214 1.521c.598-2.028 3.473-2.028 4.071 0l.094.32a.623.623 0 0 0 .896.37l.292-.158c1.858-1.012 3.892 1.02 2.88 2.879l-.16.293a.624.624 0 0 0 .371.895l.32.094c2.028.597 2.028 3.474 0 4.071l-.32.094a.623.623 0 0 0-.4.833l.03.063.157.291c1.014 1.858-1.019 3.893-2.878 2.881l-.293-.16a.625.625 0 0 0-.895.371l-.094.32c-.597 2.028-3.474 2.028-4.071 0l-.094-.32a.623.623 0 0 0-.896-.37l-.292.157c-1.86 1.014-3.89-1.02-2.88-2.879l.16-.292a.624.624 0 0 0-.371-.895l-.32-.094c-2.028-.598-2.028-3.473 0-4.071l.32-.094a.624.624 0 0 0 .37-.896l-.158-.292c-1.012-1.858 1.02-3.89 2.879-2.88l.293.16h-.001a.626.626 0 0 0 .896-.371l.094-.32zm3.592.142C9.363.161 7.286.113 6.74 1.523l-.048.14-.093.32a1.125 1.125 0 0 1-1.615.668l-.293-.16c-1.376-.748-2.877.687-2.266 2.069l.066.133.16.292a1.124 1.124 0 0 1-.67 1.615l-.319.093c-1.55.457-1.55 2.656 0 3.113l.32.093a1.124 1.124 0 0 1 .668 1.616l-.16.292c-.772 1.421.782 2.974 2.202 2.2l.292-.16a1.123 1.123 0 0 1 1.615.67l.093.319.048.14c.545 1.41 2.622 1.362 3.065-.14l.093-.32a1.122 1.122 0 0 1 1.502-.722l.114.054.29.16c1.422.774 2.976-.781 2.202-2.201v-.001l-.16-.292a1.125 1.125 0 0 1 .67-1.615l.319-.093c1.502-.443 1.55-2.52.14-3.065l-.14-.048-.32-.093a1.122 1.122 0 0 1-.667-1.616l.159-.29c.773-1.421-.781-2.975-2.201-2.202h-.001l-.292.158v.001A1.126 1.126 0 0 1 9.9 1.982l-.093-.319zm-2.633.142C7.489.73 9.01.73 9.326 1.805l.094.319a1.623 1.623 0 0 0 2.334.966l.29-.16c.983-.534 2.06.54 1.524 1.524l-.159.292a1.623 1.623 0 0 0 .968 2.333l.317.094.098.033c.975.377.943 1.814-.098 2.12l-.319.094a1.623 1.623 0 0 0-.966 2.334l.16.29c.517.953-.474 1.992-1.431 1.57l-.093-.046-.291-.159a1.623 1.623 0 0 0-2.334.967l-.094.318c-.316 1.074-1.837 1.074-2.153 0l-.094-.319a1.625 1.625 0 0 0-2.333-.967l-.29.16-.002.001c-.983.534-2.058-.54-1.523-1.524l.159-.291a1.624 1.624 0 0 0-.966-2.335l-.32-.094c-1.073-.316-1.073-1.837 0-2.153l.32-.094a1.623 1.623 0 0 0 .966-2.331l-.16-.292c-.534-.984.54-2.06 1.524-1.524l.292.159a1.624 1.624 0 0 0 2.333-.966l.094-.32zm1.674.141c-.176-.596-1.02-.596-1.195 0l-.093.32a2.123 2.123 0 0 1-3.052 1.263l-.292-.159c-.546-.296-1.142.3-.846.845l.16.292a2.124 2.124 0 0 1-1.263 3.05l-.32.094c-.596.176-.596 1.02 0 1.195l.32.093a2.124 2.124 0 0 1 1.263 3.054l-.159.291c-.297.546.3 1.142.845.846l.292-.16a2.125 2.125 0 0 1 3.052 1.263v.001l.093.319c.176.596 1.02.596 1.195 0l.093-.319a2.125 2.125 0 0 1 3.053-1.264l.291.159.103.046c.514.177 1.02-.38.743-.89v-.002l-.16-.289a2.126 2.126 0 0 1 .444-2.596c.236-.211.517-.368.82-.458l.319-.093c.559-.165.594-.917.104-1.155l-.104-.04-.319-.093a2.123 2.123 0 0 1-1.264-3.052l.159-.292c.296-.546-.3-1.142-.845-.846l-.29.16A2.125 2.125 0 0 1 8.94 2.266l-.093-.32zm2.398 6.304a2.997 2.997 0 1 0-5.994-.002 2.997 2.997 0 0 0 5.994.002zm-1 0a1.997 1.997 0 0 0-3.407-1.412 1.998 1.998 0 0 0 0 2.823 1.996 1.996 0 0 0 3.407-1.411zm.5 0a2.496 2.496 0 1 1-4.991 0 2.496 2.496 0 0 1 4.991 0zm1 0a3.496 3.496 0 1 1-6.993 0 3.496 3.496 0 0 1 6.993 0z" />
    </symbol>
    <symbol id="manual" viewBox="0 0 14 12">
        <path fill="currentColor"
            d="M10 11v1H4v-1h6zm3-3V4c0-.971-.002-1.599-.065-2.062-.058-.433-.152-.569-.228-.645-.076-.076-.212-.17-.646-.229C11.6 1.002 10.972 1 10 1H4c-.971 0-1.599.002-2.062.064-.433.059-.569.153-.645.229-.076.076-.17.212-.229.645C1.002 2.401 1 3.028 1 4v4c0 .971.002 1.599.064 2.062.059.433.153.569.229.645.076.076.212.17.645.228.463.063 1.09.065 2.062.065v1l-1.247-.009c-.997-.025-1.618-.12-2.053-.473l-.114-.104c-.44-.44-.55-1.08-.577-2.167L0 8V4C0 2.232 0 1.293.482.7L.586.586C1.172 0 2.114 0 4 0h6c1.886 0 2.828 0 3.414.586C14 1.172 14 2.114 14 4v4c0 1.886 0 2.828-.586 3.414-.44.44-1.08.55-2.167.577L10 12v-1c.971 0 1.599-.002 2.062-.065.433-.058.569-.152.645-.228.076-.076.17-.212.228-.646C12.998 9.6 13 8.972 13 8z" />
        <path fill="currentColor"
            d="M8 11.5V.5a.5.5 0 0 1 1 0v11a.5.5 0 0 1-1 0zM11.5 6a.5.5 0 0 1 0 1h-1a.5.5 0 0 1 0-1h1zm0-2a.5.5 0 0 1 0 1h-1a.5.5 0 0 1 0-1h1zm0-2a.5.5 0 0 1 0 1h-1a.5.5 0 0 1 0-1h1z" />
    </symbol>
    <symbol id="download" viewBox="0 0 13 13">
        <path fill="#222"
            d="M10.196 5.023a.5.5 0 0 1-.021.707L6.84 8.864a.5.5 0 0 1-.685 0L2.823 5.73a.5.5 0 0 1 .685-.728l2.49 2.343V.5a.5.5 0 1 1 1 0v6.844L9.49 5.002a.5.5 0 0 1 .707.021z" />
        <path fill="#222"
            d="M0 10.5V7.834a.5.5 0 1 1 1 0v2.668l.005.61c.004.168.012.304.027.42.03.217.076.285.114.323.039.038.107.085.324.114.23.031.545.033 1.03.033h8c.485 0 .8-.002 1.03-.033.217-.029.285-.076.324-.114.038-.038.085-.106.114-.323.03-.231.032-.545.032-1.03V7.834a.5.5 0 0 1 1 0V10.5c0 .456.001.85-.041 1.163-.044.327-.144.642-.399.897-.254.255-.568.354-.896.399-.313.042-.707.04-1.164.04h-8c-.457 0-.85.002-1.164-.04-.328-.045-.642-.144-.897-.399-.254-.255-.354-.57-.398-.897a5.006 5.006 0 0 1-.036-.528L0 10.501z" />
    </symbol>
    <symbol id="home" viewBox="0 0 17 17">
        <path fill="currentColor"
            d="M1.393 13.491V6.634h1.143v6.857c0 .555.001.913.037 1.178.033.247.087.325.13.369.044.043.122.097.37.13.264.036.622.037 1.177.037h8c.555 0 .913 0 1.178-.036.247-.034.325-.088.369-.131.043-.043.097-.122.13-.37.036-.264.037-.622.037-1.177V6.634h1.143v6.857c0 .523.002.972-.047 1.33-.05.375-.164.734-.455 1.025-.291.291-.65.405-1.025.455-.358.049-.807.047-1.33.047h-8c-.523 0-.972.002-1.33-.047-.375-.05-.734-.164-1.025-.455-.291-.291-.405-.65-.455-1.024-.048-.359-.047-.808-.047-1.33z" />
        <path fill="currentColor"
            d="M8.25.25c.412 0 .746.174 1.047.403.287.22.604.538.973.907l5.813 5.813a.571.571 0 1 1-.808.808L9.462 2.368c-.392-.392-.646-.645-.858-.807-.199-.151-.292-.168-.354-.168s-.155.017-.354.168c-.212.162-.466.415-.858.807L1.225 8.181a.571.571 0 1 1-.808-.808L6.23 1.56c.37-.37.686-.688.973-.907.3-.23.635-.403 1.047-.403zM5.964 12.92c0-1.078 0-1.617.335-1.951.335-.335.873-.335 1.951-.335s1.616 0 1.951.335c.335.335.335.873.335 1.95v3.43H5.964v-3.43z" />
        <path fill="currentColor"
            d="M11.679 2.634c0-.539 0-.808.167-.976.167-.167.437-.167.976-.167.538 0 .808 0 .975.167.167.168.167.437.167.976v3.429l-1.616-1.617c-.33-.33-.495-.495-.582-.705-.087-.21-.087-.444-.087-.911v-.196z" />
        <path fill="currentColor"
            d="M2.286 7.474l-.643.643v5.374c0 .53 0 .96.045 1.297.046.347.147.644.384.88.237.238.534.34.881.386.338.045.768.045 1.297.045h1.464v-.644H4.25c-.547 0-.926 0-1.21-.039-.276-.037-.416-.104-.514-.201-.097-.098-.164-.237-.2-.513-.039-.285-.04-.663-.04-1.21V7.473zm3.928 8.625h4.072v-.644H6.214v.644zm-5.62-8.55a.322.322 0 0 0 .455.455l.094-.094v-.909l-.55.549zm14.764.361l.093.094a.322.322 0 0 0 .455-.454L15.357 7v.91zm-13.715-.5l.526-.526h-.526v.526zm13.214 0v-.526h-.526l.527.526zM8.25.5c-.335 0-.617.14-.895.352-.271.206-.574.511-.949.885L1.76 6.384h.909L6.861 2.19c.387-.386.655-.654.883-.829.222-.169.369-.22.506-.22.138 0 .284.051.506.22.228.175.496.443.883.83l4.192 4.192h.1l-1.76-1.761c-.316-.316-.526-.52-.637-.786-.089-.215-.103-.448-.105-.765l-1.335-1.335c-.374-.374-.678-.679-.948-.885C8.867.639 8.586.5 8.25.5zm5.964 5.884h.526l-.526-.527v.527zm-2.218-2.738c.064.153.184.28.528.624l1.19 1.189v-.102l-1.72-1.72.002.009zm-1.71 9.274c0-.546 0-.93-.04-1.22-.038-.284-.108-.441-.222-.554-.113-.114-.27-.184-.553-.222-.29-.04-.675-.04-1.22-.04-.547 0-.93 0-1.222.04-.283.038-.44.108-.553.222-.113.113-.184.27-.222.553-.04.29-.04.675-.04 1.22v2.036h4.072V12.92zm3.928.571c0 .548 0 .926-.04 1.211-.036.276-.103.415-.2.513-.098.097-.237.164-.513.201-.285.038-.664.04-1.21.04h-1.465v.643h1.464c.53 0 .96 0 1.297-.045.347-.047.644-.148.88-.385.238-.237.339-.534.386-.88.045-.338.044-.768.044-1.298V8.117l-.643-.643v6.017zm-.5-10.857c0-.277 0-.459-.019-.594-.017-.128-.045-.176-.075-.205-.03-.03-.077-.058-.205-.075a5.055 5.055 0 0 0-.594-.019c-.276 0-.458 0-.593.019-.128.017-.176.045-.205.075-.03.03-.059.077-.076.205a5.07 5.07 0 0 0-.018.594v.231l1.785 1.785V2.634zm-2.928 12.321h1.464c.562 0 .9-.001 1.145-.034a.844.844 0 0 0 .221-.056l.008-.008a.84.84 0 0 0 .056-.222c.033-.243.034-.582.034-1.144V6.974l-4.429-4.43a16.586 16.586 0 0 0-.677-.654l-.156-.13a.82.82 0 0 0-.173-.109c-.022-.009-.028-.009-.029-.008 0 0-.007 0-.03.008a.462.462 0 0 0-.064.034l-.108.075c-.195.149-.436.387-.833.785L2.786 6.974v6.517c0 .562.002.901.034 1.145a.84.84 0 0 0 .056.221l.008.008a.845.845 0 0 0 .222.056c.243.033.582.034 1.144.034h1.464V12.92c0-.532 0-.956.045-1.287.045-.34.142-.62.363-.841.222-.222.502-.319.841-.364.332-.045.756-.044 1.287-.044.532 0 .955 0 1.287.044.34.045.62.142.841.364.222.222.318.502.363.84.045.332.045.756.045 1.288v2.035zm3.428-9.805l2.046 2.046a.821.821 0 0 1-.903 1.336v4.96c0 .515.002.984-.05 1.362-.053.403-.18.823-.526 1.169-.345.345-.765.472-1.168.526-.378.05-.847.05-1.363.05h-8c-.516 0-.985 0-1.363-.05-.402-.054-.823-.181-1.168-.526-.346-.346-.472-.766-.527-1.168-.05-.38-.05-.848-.05-1.364V8.532A.822.822 0 0 1 .24 7.196l5.813-5.812c.364-.365.695-.698.999-.93C7.374.208 7.762 0 8.25 0c.489 0 .876.208 1.198.454.304.232.635.565 1 .93l.983.983a3.36 3.36 0 0 1 .021-.393c.025-.184.08-.355.217-.493.138-.137.309-.192.492-.216.176-.024.398-.024.66-.024.263 0 .484 0 .66.024.184.024.355.079.493.216.138.138.193.31.217.493.024.176.023.398.023.66V5.15z" />
    </symbol>
    <symbol id="mypage-02" viewBox="0 0 20 20">
        <path fill="currentColor"
            d="M6.893 9.158A257.499 257.499 0 0 0 5.305 7.58c-.037-.037-.139-.027-.203-.009-1.097.32-2.13.185-3.101-.416C.487 6.22-.152 4.278.51 2.626c.115-.296.328-.342.56-.115.545.541 1.092 1.087 1.638 1.637.046.047.074.102.106.144.505-.505.981-.981 1.467-1.471-.569-.565-1.147-1.138-1.726-1.716-.282-.283-.24-.472.134-.616 2.245-.846 4.726.643 5.027 3.026a3.66 3.66 0 0 1-.14 1.586c-.018.065 0 .18.043.227.796.81 1.601 1.61 2.402 2.41.014.014.032.023.055.041.051-.046.102-.092.148-.138 1.454-1.453 2.907-2.9 4.356-4.358a.864.864 0 0 0 .18-.282c.12-.305.223-.624.348-.93a.59.59 0 0 1 .208-.254c.685-.402 1.38-.796 2.064-1.193.176-.102.32-.084.463.06.32.328.648.652.972.971.143.143.162.291.06.463-.393.684-.782 1.369-1.185 2.049-.055.092-.176.152-.264.226a.05.05 0 0 1-.032.014c-.768.176-1.342.63-1.88 1.189-1.189 1.24-2.425 2.442-3.646 3.659-.051.05-.107.092-.172.148.06.065.107.116.153.162.755.754 1.509 1.503 2.254 2.262.102.101.18.134.329.088 2.152-.671 4.439.777 4.772 3.006a3.778 3.778 0 0 1-.208 1.934c-.12.31-.334.351-.57.115-.588-.583-1.17-1.17-1.75-1.748-.48.486-.957.962-1.476 1.485.037.023.107.046.153.097a265.62 265.62 0 0 1 1.61 1.61c.255.254.209.462-.124.587-2.255.86-4.73-.615-5.05-3.011a3.547 3.547 0 0 1 .139-1.587c.041-.12.018-.19-.07-.282-.463-.453-.92-.916-1.384-1.379-.037-.037-.083-.074-.139-.129-.06.444-.3.759-.597 1.055-1.583 1.572-3.156 3.154-4.735 4.732-.722.721-1.596.721-2.323 0-.542-.542-1.083-1.078-1.625-1.624-.675-.68-.67-1.577 0-2.257 1.616-1.615 3.231-3.224 4.842-4.843.268-.268.574-.458.99-.523l.005.005zM18.51 16.3c.027-.019.055-.042.083-.06.023-.176.065-.352.074-.528a3.169 3.169 0 0 0-4.268-3.178c-.217.079-.365.051-.527-.115-2.273-2.28-4.55-4.556-6.827-6.828-.144-.143-.176-.282-.102-.476.467-1.263.153-2.586-.847-3.483C5.277.902 4.31.688 3.213.92c.06.069.102.115.144.157.495.495.99.99 1.485 1.49.204.203.204.346 0 .55C4.27 3.69 3.7 4.264 3.125 4.833c-.213.208-.342.213-.55 0-.496-.495-.991-.99-1.49-1.485a1.907 1.907 0 0 0-.144-.13c-.024.005-.042.014-.065.019-.014.356-.065.712-.028 1.064a3.156 3.156 0 0 0 4.249 2.646c.218-.079.366-.047.528.115a2347.62 2347.62 0 0 0 6.808 6.795c.167.167.195.315.116.542-.426 1.235-.199 2.359.708 3.298.824.855 1.852 1.105 3.041.823-.037-.065-.111-.083-.162-.13-.5-.49-.995-.99-1.49-1.485-.19-.19-.19-.332 0-.522l1.745-1.744c.199-.199.333-.199.532 0 .49.49.986.98 1.472 1.476.046.046.07.12.106.18l.01.005zM3.866 18.353a.918.918 0 0 0 .639-.277c1.661-1.66 3.327-3.321 4.99-4.987.379-.379.383-.939.008-1.318a129.817 129.817 0 0 0-1.786-1.785.906.906 0 0 0-1.292 0A3387.94 3387.94 0 0 0 1.408 15a.9.9 0 0 0-.01 1.29c.593.606 1.195 1.203 1.797 1.8.18.18.402.259.666.263h.005zM17.516 1.22c-.334.19-.681.389-1.028.592-.282.162-.625.273-.82.51-.194.23-.235.596-.365.892-.07.162-.162.333-.287.458-1.453 1.466-2.92 2.923-4.379 4.385-.046.046-.092.097-.125.13l.82.818c.032-.037.07-.088.11-.134 1.33-1.332 2.671-2.65 3.986-3.997.398-.407.82-.735 1.38-.865.29-.069.476-.23.615-.504.24-.476.528-.93.791-1.392.028-.046.051-.097.07-.13-.26-.259-.51-.504-.764-.758l-.005-.005z" />
        <path fill="currentColor"
            d="M2.601.256C4.997-.648 7.643.94 7.965 3.482l.021.215a3.93 3.93 0 0 1-.166 1.464l.001.015c.747.758 1.501 1.509 2.254 2.26 1.445-1.443 2.889-2.881 4.328-4.329h.001c.05-.05.093-.12.126-.2.058-.148.112-.299.168-.455a11.7 11.7 0 0 1 .179-.476l.002-.004a.84.84 0 0 1 .304-.367l.007-.004c.685-.402 1.385-.799 2.066-1.194l.091-.046a.59.59 0 0 1 .31-.048.63.63 0 0 1 .363.194l.003.003c.317.326.644.647.968.966l.002.002a.632.632 0 0 1 .193.366.621.621 0 0 1-.094.397v.001c-.392.683-.782 1.37-1.186 2.052v.002a.69.69 0 0 1-.185.191c-.07.052-.094.065-.132.098l-.002-.002a.3.3 0 0 1-.14.07c-.61.14-1.093.473-1.554.918l-.197.198c-1.188 1.238-2.424 2.44-3.64 3.65.743.742 1.489 1.481 2.224 2.23.04.04.05.04.042.037-.013-.004-.01.004.036-.01 2.229-.695 4.587.734 5.055 2.988l.039.22c.103.702.035 1.39-.222 2.06v.001c-.073.186-.203.372-.425.417a.553.553 0 0 1-.44-.116l-.114-.099c-.529-.523-1.054-1.052-1.574-1.572l-1.095 1.103c.52.515 1.04 1.034 1.56 1.558l.102.118c.095.128.16.283.123.454-.05.229-.25.356-.44.427-2.405.916-5.045-.658-5.385-3.213a3.802 3.802 0 0 1 .15-1.698v-.003l.002-.009-.017-.02c-.406-.398-.81-.805-1.215-1.21a2.053 2.053 0 0 1-.32.518l-.226.245c-1.583 1.572-3.156 3.153-4.735 4.731-.396.397-.857.614-1.336.614-.48 0-.941-.217-1.34-.613L.879 16.952C.5 16.572.3 16.117.3 15.647c0-.469.202-.925.577-1.304l.002-.001c1.615-1.615 3.23-3.225 4.84-4.843l.115-.108a2 2 0 0 1 .572-.363c-.418-.417-.821-.82-1.228-1.22l-.008.002c-1.091.318-2.13.212-3.108-.329l-.194-.114C.252 6.369-.43 4.297.279 2.533c.07-.181.2-.36.416-.405a.55.55 0 0 1 .435.107l.115.097L2.833 3.92c.373-.373.732-.735 1.095-1.1-.512-.507-1.03-1.02-1.55-1.539-.145-.145-.298-.35-.245-.59.052-.237.276-.362.468-.435zM.634 3.038C.21 4.5.818 6.13 2.132 6.942l.171.1c.86.478 1.763.57 2.729.289a.686.686 0 0 1 .182-.026c.032 0 .073.002.115.013.04.01.1.033.153.085.493.484.981.973 1.492 1.484l.095.093-.177.178-.003.002.038.24c-.354.055-.614.212-.853.451-1.61 1.62-3.226 3.229-4.84 4.842v.001c-.296.3-.433.634-.433.953 0 .32.134.653.432.952.54.546 1.081 1.08 1.623 1.622.328.326.669.47.989.47.319 0 .658-.144.983-.468 1.577-1.577 3.152-3.16 4.735-4.733.282-.282.476-.548.526-.911l.067-.5.357.357c.023.023.044.043.067.063.02.018.048.042.072.066l1.382 1.377.007.006a.555.555 0 0 1 .143.24.493.493 0 0 1-.02.297c-.156.477-.191.97-.126 1.472l.033.207c.409 2.113 2.643 3.381 4.68 2.603a.398.398 0 0 0 .12-.064v-.004a.408.408 0 0 0-.083-.11 348.41 348.41 0 0 0-1.61-1.608l-.01-.009-.046-.024c-.012-.006-.033-.016-.054-.03l-.147-.092c.46.461.92.924 1.384 1.379l.005.004.018.01.027.017c.039.024.11.072.16.16l.165.29-.325.076c-1.186.282-2.245.066-3.108-.726l-.17-.166c-.975-1.01-1.22-2.234-.765-3.554a.318.318 0 0 0 .026-.16.14.14 0 0 0-.019-.046l-.062-.076c-2.273-2.262-4.546-4.523-6.81-6.795-.06-.06-.097-.076-.12-.081-.022-.005-.063-.007-.146.022l.001.001A3.404 3.404 0 0 1 .628 4.535l-.029-.208c-.04-.375.014-.779.027-1.1l.008-.19zm5.616 6.77a1.156 1.156 0 0 1 1.642 0l.9.89c.298.298.595.596.89.897l.082.092c.388.475.352 1.134-.093 1.58l-.001-.002c-1.662 1.666-3.327 3.328-4.989 4.988v-.001a1.17 1.17 0 0 1-.806.351h-.019a1.168 1.168 0 0 1-.838-.336l-.902-.897c-.3-.3-.6-.602-.896-.905a1.15 1.15 0 0 1 .011-1.642c1.671-1.675 3.342-3.345 5.018-5.015zm-.32-7.99c-.638-.57-1.37-.798-2.203-.723.43.43.86.86 1.291 1.294.114.114.227.263.227.453s-.112.338-.226.452c-.573.572-1.144 1.147-1.718 1.717H3.3c-.112.11-.26.228-.45.23-.193 0-.341-.118-.453-.231l-1.3-1.297a3.25 3.25 0 0 0 0 .561l.024.178c.3 1.81 2.141 2.9 3.89 2.26a.76.76 0 0 1 .424-.042c.11.024.204.076.286.143l.08.073 3.4 3.4 3.408 3.394h.001a.743.743 0 0 1 .218.375c.03.147.004.29-.043.425-.396 1.15-.188 2.174.651 3.042l.001.001c.643.667 1.413.933 2.315.836-.43-.424-.859-.853-1.284-1.277-.11-.11-.215-.254-.215-.438s.106-.328.216-.438l.873-.872.872-.872c.11-.11.255-.222.443-.222s.333.112.442.222c.435.434.875.873 1.309 1.312.003-.025.008-.05.01-.075v-.002a2.918 2.918 0 0 0-3.932-2.928.766.766 0 0 1-.423.044.727.727 0 0 1-.368-.218c-2.272-2.28-4.55-4.556-6.826-6.827a.695.695 0 0 1-.2-.342.693.693 0 0 1 .04-.4c.432-1.168.142-2.382-.78-3.209zm1.61 8.346a.656.656 0 0 0-.94 0l-5.015 5.013a.65.65 0 0 0-.008.938c.295.302.593.603.893.901l.9.896c.126.125.28.186.49.19a.668.668 0 0 0 .465-.2l.003-.004c1.662-1.66 3.328-3.32 4.99-4.985l.092-.112a.652.652 0 0 0-.085-.854h-.001c-.586-.6-1.182-1.191-1.783-1.783zm-.07-6.618C7.188 1.324 4.872-.066 2.779.723h-.002A.563.563 0 0 0 2.63.8a.61.61 0 0 0 .102.128c.578.577 1.156 1.151 1.726 1.715l.178.176-.176.178c-.487.49-.964.968-1.468 1.472l-.2.2-.174-.224a.817.817 0 0 1-.034-.048l-.014-.02-.01-.016a.259.259 0 0 0-.028-.036h-.001c-.545-.55-1.09-1.095-1.636-1.636l-.054-.047a.193.193 0 0 0-.042-.022.27.27 0 0 0-.056.098l-.001.002c-.04.102-.076.205-.106.31l.19-.038c-.005.001-.01.002.003-.002a.544.544 0 0 1 .062-.017l.117-.023.09.075c.057.046.11.093.162.145l1.49 1.486.003.002a.483.483 0 0 0 .092.078l.001.001.006-.003a.54.54 0 0 0 .098-.08c.573-.568 1.141-1.14 1.716-1.715.09-.09.079-.114.079-.097 0 .016.01-.01-.08-.099v-.001c-.495-.499-.99-.993-1.486-1.488a3.25 3.25 0 0 1-.155-.171l-.278-.32.415-.088c1.093-.23 2.085-.046 2.934.629l.168.141c1.078.967 1.418 2.4.915 3.757v.002c-.026.068-.024.1-.021.115.003.016.015.045.064.095C9.5 7.685 11.777 9.96 14.05 12.242l.002.002c.06.061.095.076.116.08.01.002.026.004.05.001l.097-.026a3.42 3.42 0 0 1 4.603 3.427c-.006.102-.02.2-.035.29-.016.095-.03.174-.041.256l-.015.113-.095.062-.03.023-.053.038-.12.08-.13-.065-.01-.005-.063-.032-.038-.06a.9.9 0 0 1-.036-.066l-.013-.026-.01-.02c-.015-.029-.017-.03-.011-.023l-.001-.001c-.485-.494-.98-.983-1.471-1.475a.44.44 0 0 0-.086-.071l-.004-.002-.003.002a.44.44 0 0 0-.086.071l-.872.872-.873.872c-.08.08-.07.102-.07.085 0-.017-.01.005.07.084l.002.002.2-.2c.522-.527.992-.996 1.476-1.484l.177-.179.177.178c.58.579 1.162 1.165 1.75 1.748l.057.05a.22.22 0 0 0 .039.024l.005.001.002-.001a.338.338 0 0 0 .056-.104 3.53 3.53 0 0 0 .194-1.806c-.312-2.078-2.447-3.43-4.45-2.805a.552.552 0 0 1-.327.014.603.603 0 0 1-.252-.162l-.002-.002c-.745-.758-1.497-1.506-2.252-2.261-.05-.05-.102-.106-.16-.168l-.177-.19.198-.17c.08-.07.114-.093.156-.135 1.225-1.22 2.458-2.418 3.645-3.655.543-.566 1.148-1.054 1.969-1.251l.047-.035.07-.05a.437.437 0 0 0 .043-.036l.011-.013c.402-.678.789-1.36 1.183-2.045l.002-.003c.03-.052.03-.076.03-.082-.002-.006-.006-.03-.05-.075L17.666.86c-.046-.046-.07-.05-.074-.05-.003 0-.01-.001-.024.002l-.062.028c-.687.399-1.375.786-2.058 1.187l.001.001a.346.346 0 0 0-.112.142c-.06.146-.114.296-.17.45-.055.156-.112.316-.174.473l-.001.003a1.18 1.18 0 0 1-.16.279l-.075.085c-1.45 1.457-2.903 2.905-4.356 4.357-.051.051-.107.101-.157.147l-.157.143-.167-.133a.427.427 0 0 1-.076-.06c-.8-.8-1.607-1.6-2.404-2.411l-.008-.008a.469.469 0 0 1-.103-.23.534.534 0 0 1 .008-.233v-.006a3.44 3.44 0 0 0 .13-1.48zm10.223-2.503l.004.005.38.377.385.381.135.135-.095.166a1.55 1.55 0 0 1-.07.129c-.272.477-.549.912-.786 1.382-.167.329-.408.546-.78.635h-.002c-.492.114-.872.402-1.257.796-1.314 1.346-2.659 2.666-3.983 3.995-.014.015-.028.033-.044.053l-.06.073-.175.2-.189-.189-.007-.005-.003-.004-.004-.003c-.006-.007.004.002-.002-.004l-.002-.001-.003-.002c-.005-.005 0-.001-.005-.007-.008-.007-.007-.005-.014-.013l-.013-.013-.026-.027-.014-.012-.003-.003c-.009-.01.006.005-.003-.004l-.006-.006a8.211 8.211 0 0 1-.027-.026v-.002l-.003-.001c-.004-.005.002 0-.003-.004l-.006-.006-.02-.02-.001-.002h-.002l-.003-.004-.002-.001-.007-.007v-.002c-.004-.003-.002 0-.005-.003l-.002-.003-.003-.004c-.003-.003-.002 0-.004-.003l-.006-.006-.003-.004c-.002-.001-.002 0-.004-.003l-.001-.002h-.002l-.002-.002V8.97l-.003-.001-.014-.015-.006-.007h-.002l-.002-.003-.001-.002h-.002l-.032-.033-.006-.007-.004-.003-.162-.162-.001-.002h-.002l-.225-.225-.004-.003-.003-.004-.058-.059h-.002l-.001-.003-.255-.255.177-.176.053-.055c.02-.022.045-.05.07-.075 1.46-1.463 2.927-2.918 4.38-4.384.091-.092.17-.23.234-.38l.001-.003c.058-.133.092-.27.15-.447.051-.16.122-.35.251-.504a1.46 1.46 0 0 1 .453-.344c.076-.04.157-.08.229-.115.075-.037.143-.071.206-.107a92.35 92.35 0 0 1 1.028-.593l.166-.094.135.134zm-1.078.985l-.002.001a4.185 4.185 0 0 1-.233.122c-.078.038-.148.072-.216.109a.98.98 0 0 0-.302.22v.002a1.007 1.007 0 0 0-.162.338c-.044.137-.096.329-.167.491a1.718 1.718 0 0 1-.34.536h.001c-1.437 1.45-2.89 2.893-4.33 4.336l.156.157.026.024.025.025.006.007c.009.01-.002-.003.007.006-.005-.005.007.009.003.004l.008.008h.002l.101.103.05.051c.013.013-.005-.006.008.006v.002l.003.002h.002v.003l.007.007.007.006.013.012c.015.015-.003-.001.013.014l.02.02c1.312-1.317 2.633-2.613 3.929-3.94.36-.368.758-.697 1.273-.87l.229-.065a.593.593 0 0 0 .361-.23l.088-.144c.237-.469.523-.927.773-1.364l-.249-.247-.25-.249c-.281.16-.57.328-.86.497z" />
        <path fill="currentColor"
            d="M6.445 11.456c.278-.005.426.218.324.412a.647.647 0 0 1-.143.176l-3.18 3.177c-.042.042-.079.084-.13.116-.13.079-.259.07-.365-.042-.107-.11-.116-.236-.028-.365a.583.583 0 0 1 .102-.111l3.207-3.206c.074-.074.167-.124.213-.157z" />
        <path fill="currentColor"
            d="M6.442 11.206a.61.61 0 0 1 .509.233.507.507 0 0 1 .042.54.874.874 0 0 1-.19.24v.002l-3.18 3.178c-.028.028-.092.098-.172.149l-.004.003a.557.557 0 0 1-.347.085.53.53 0 0 1-.33-.167.535.535 0 0 1-.155-.33.547.547 0 0 1 .101-.35.808.808 0 0 1 .133-.147l1.604-1.603 1.603-1.602c.095-.095.23-.175.246-.186l.063-.044h.077zm.049.52a.57.57 0 0 0-.081.064l-1.604 1.603-1.604 1.603-.006.006-.006.005a.347.347 0 0 0-.059.062v.001a.123.123 0 0 0-.016.03.122.122 0 0 0 .036.039c-.004 0 .005.001.034-.016a.59.59 0 0 0 .085-.078l3.187-3.185a.418.418 0 0 0 .09-.104l.001-.004.004-.009v-.003l-.003-.004a.083.083 0 0 0-.04-.022.992.992 0 0 0-.018.012zm-2.023 4.896c-.287 0-.426-.24-.31-.435.032-.055.079-.097.125-.143 1.06-1.064 2.124-2.123 3.189-3.187.042-.042.079-.083.13-.116.13-.083.259-.069.365.037.107.107.116.236.033.366-.028.046-.074.088-.116.13-1.065 1.063-2.125 2.123-3.19 3.182-.078.078-.175.13-.226.166z" />
        <path fill="currentColor"
            d="M7.818 12.441a.53.53 0 0 1 .325.161c.088.088.15.2.16.33a.555.555 0 0 1-.093.348l-.001-.001c-.049.078-.124.148-.149.172a2011.938 2011.938 0 0 1-3.19 3.181 1.068 1.068 0 0 1-.16.13l-.095.063-.065.048h-.082a.603.603 0 0 1-.514-.256.517.517 0 0 1-.01-.557c.052-.09.13-.16.162-.192 1.06-1.064 2.125-2.123 3.189-3.187.028-.028.092-.099.173-.15a.544.544 0 0 1 .35-.09zm-.054.498a.105.105 0 0 0-.028.014c-.022.013-.033.027-.088.082L4.46 16.22c-.06.06-.075.073-.086.093l-.001.002c-.006.01-.006.014-.006.016 0 .001 0 .004.003.008.002.003.012.014.037.023l.024-.016a.585.585 0 0 0 .087-.067v-.001c1.065-1.059 2.124-2.118 3.189-3.182l.033-.032.025-.026.016-.017.004-.007.004-.006.016-.035a.08.08 0 0 0-.014-.018.088.088 0 0 0-.022-.017h-.005z" />
    </symbol>
    <symbol id="play" viewBox="0 0 14 14">
        <path fill="currentColor" d="M7 13A6 6 0 1 0 7 1a6 6 0 0 0 0 12zm0 1A7 7 0 1 1 7 0a7 7 0 0 1 0 14z" />
        <path fill="currentColor" d="M10 7L5 4v6l5-3z" />
    </symbol>
    <symbol id="left" viewBox="0 0 7 12">
        <path fill="currentColor"
            d="M5.532.22a.75.75 0 1 1 1.06 1.06L2.124 5.75l4.47 4.47a.75.75 0 1 1-1.06 1.06L.001 5.75 5.532.22z" />
    </symbol>
    <symbol id="mypage-01" viewBox="0 0 18 20">
        <path fill="currentColor"
            d="M16 18.6v-2.06c0-1.017-.006-1.402-.09-1.701a2.4 2.4 0 0 0-1.659-1.66c-.3-.084-.684-.09-1.701-.09h-7.9c-1.017 0-1.402.006-1.702.09a2.4 2.4 0 0 0-1.658 1.66c-.084.3-.09.684-.09 1.701v2.06a.6.6 0 1 1-1.2 0v-2.06c0-.936-.006-1.528.135-2.027a3.6 3.6 0 0 1 2.487-2.488c.5-.14 1.092-.135 2.027-.135h7.9c.937 0 1.529-.005 2.028.135a3.6 3.6 0 0 1 2.487 2.488c.141.5.135 1.091.135 2.027v2.06a.6.6 0 1 1-1.199 0zM12.826 5.114c0-2.132-1.832-3.915-4.16-3.915-2.327 0-4.16 1.783-4.16 3.915 0 2.133 1.832 3.915 4.16 3.915 2.328 0 4.16-1.782 4.16-3.915zm1.2 0c0 2.855-2.43 5.115-5.36 5.115s-5.36-2.26-5.36-5.115C3.307 2.26 5.737 0 8.667 0s5.36 2.26 5.36 5.114z" />
        <path fill="currentColor"
            d="M15.6 3a.6.6 0 1 1 0 1.2h-11a.6.6 0 1 1 0-1.2h11zM9.203 17.1a.6.6 0 1 1-1.2 0v-4.5a.6.6 0 1 1 1.2 0v4.5zm4.897-1.855a.6.6 0 1 1 0 1.2h-2.754a.6.6 0 1 1 0-1.2H14.1z" />
    </symbol>
    <symbol id="rental-01" viewBox="0 0 18 18">
        <path fill="currentColor"
            d="M12.884 3.72V2.613l-.28-.002H4.502l-.28.002v1.109a.5.5 0 1 1-1 0v-1.1a7.72 7.72 0 0 0-.849.059c-.49.065-.748.185-.933.37-.184.184-.305.443-.37.932C1 4.486 1 5.153 1 6.11v.153h15.105V6.11c0-.957-.001-1.624-.069-2.128-.066-.489-.186-.748-.37-.932-.184-.185-.444-.305-.933-.37a8.16 8.16 0 0 0-.85-.06v1.1a.5.5 0 0 1-1 0zm4.221 3.49a.498.498 0 1 1-.995.052H1v5.343c0 .957 0 1.625.068 2.128.066.49.187.748.371.933.185.184.444.304.933.37.504.068 1.171.07 2.128.07h2.263a.5.5 0 1 1 0 1H4.5c-.928 0-1.675 0-2.26-.079-.6-.08-1.106-.253-1.508-.654-.4-.401-.573-.907-.654-1.507C0 14.281 0 13.534 0 12.606V6.11c0-.928 0-1.675.078-2.26.08-.6.253-1.106.654-1.507.402-.401.907-.574 1.507-.655.288-.038.614-.058.982-.068V.5a.5.5 0 0 1 1 0v1.11h8.663V.5a.5.5 0 0 1 1 0v1.12c.368.01.694.03.982.068.6.081 1.106.253 1.507.655.401.401.574.907.654 1.507.08.585.078 1.332.078 2.26v1.1z" />
        <path fill="currentColor"
            d="M5.422 13.474a.895.895 0 1 1-1.79 0 .895.895 0 0 1 1.79 0zm0-3.579a.895.895 0 1 1-1.79 0 .895.895 0 0 1 1.79 0zm4.027 0a.895.895 0 1 1-1.79 0 .895.895 0 0 1 1.79 0zm7.553 3.579a3.526 3.526 0 1 0-7.053 0 3.526 3.526 0 0 0 7.053 0zm1 0a4.527 4.527 0 1 1-9.053 0 4.527 4.527 0 0 1 9.053 0z" />
        <path fill="currentColor"
            d="M12.973 12.132a.5.5 0 1 1 1 0v.842h.841a.5.5 0 0 1 0 1h-1.341a.5.5 0 0 1-.5-.5v-1.342z" />
    </symbol>
    <symbol id="question" viewBox="0 0 18 18">
        <path fill="#141312" d="M0 9a9 9 0 1 1 18 0A9 9 0 0 1 0 9z" />
        <path fill="currentColor"
            d="M8.072 10.188h1.386l.59.763c.371-.435.58-1.09.58-1.955 0-1.665-.783-2.567-1.986-2.567-1.204 0-1.998.902-1.998 2.567s.794 2.567 1.998 2.567c.155 0 .306-.016.45-.043l-1.02-1.332zm4.2-1.192c0 1.386-.472 2.455-1.235 3.126l1.107 1.407h-1.515l-.623-.784a3.68 3.68 0 0 1-1.364.247C6.568 12.992 5 11.52 5 8.996 5 6.461 6.568 5 8.642 5c2.051 0 3.63 1.46 3.63 3.996z" />
    </symbol>
    <symbol id="mypage-03" viewBox="0 0 23 23">
        <path fill="currentColor"
            d="M18.733 5.834c.354-.354.451-.457.51-.544.28-.42.28-.967 0-1.388-.059-.087-.155-.19-.51-.543-.353-.354-.456-.451-.543-.51a1.25 1.25 0 0 0-1.388 0c-.087.059-.19.156-.543.51L5.425 14.193c-.283.283-.356.36-.413.443-.057.083-.103.179-.264.546l-.404.919c-.447 1.016-.747 1.704-.888 2.198a1.593 1.593 0 0 0-.074.41c.066 0 .191-.01.411-.073.495-.14 1.183-.44 2.199-.888l.919-.404c.367-.161.463-.207.545-.264.083-.056.16-.13.444-.412L18.733 5.834zM8.96 17.728c-.245.246-.432.437-.656.59-.224.154-.471.259-.79.399l-.919.404c-.97.427-1.772.783-2.392.958-.58.165-1.342.275-1.903-.286-.562-.561-.452-1.323-.287-1.904.176-.62.53-1.422.958-2.393l.404-.918c.14-.318.245-.565.399-.79.153-.223.345-.41.59-.656L15.198 2.298c.303-.303.53-.534.77-.695a2.751 2.751 0 0 1 3.056 0c.24.16.467.392.77.695.303.303.535.53.696.77a2.751 2.751 0 0 1 0 3.056c-.161.241-.393.467-.696.77L8.96 17.728z" />
        <path stroke="#999" stroke-width="1.5" d="M12.984 5.535l3.536 3.536" />
    </symbol>
    <symbol id="rental-03" viewBox="0 0 17 19">
        <path fill="currentColor" d="M12.429 7.43a.5.5 0 1 1 0 1H.57a.5.5 0 0 1 0-1h11.86z" />
        <path fill="currentColor"
            d="M12.05 7.89V1.924A.911.911 0 0 0 11.153 1H1.9a.911.911 0 0 0-.899.923v13.99c0 .516.41.922.9.922h4.632a.5.5 0 0 1 0 1H1.9c-1.057.001-1.9-.868-1.9-1.922V1.923C0 .87.843.002 1.9.002h9.252c1.057 0 1.899.87 1.899 1.923V7.89a.5.5 0 0 1-1 0z" />
        <path fill="currentColor"
            d="M7.4.274a.5.5 0 0 1 .673-.22L8.005.19l.068-.134h.001l.002.001.003.002.007.003.017.01c.011.007.03.018.051.034a.506.506 0 0 1 .201.404.496.496 0 1 1-.81.389L7.525.88a.5.5 0 0 1-.08-.087L7.44.783a.497.497 0 0 1-.04-.51zM7.549.9a.471.471 0 0 0 .06.039l.006.002a.499.499 0 0 1-.067-.043V.9zM7.461.816c.003.004.008.007.012.01A.147.147 0 0 1 7.45.8l.011.017zM7.396.705zM7.367.614zM2.246 14.708v-2.523a.5.5 0 0 1 1 0v2.523c0 .34.267.598.575.598h.924a.591.591 0 0 0 .581-.598v-2.523a.5.5 0 0 1 1 0v2.523a1.59 1.59 0 0 1-1.575 1.598h-.93c-.878 0-1.575-.724-1.575-1.598z" />
        <path fill="currentColor"
            d="M4.284 10.96c.472.001.922.075 1.273.212.173.068.347.162.487.29.14.13.282.333.282.603a.824.824 0 0 1-.282.602c-.14.129-.314.222-.487.29-.35.137-.8.212-1.273.212-.472 0-.922-.075-1.272-.212a1.548 1.548 0 0 1-.489-.29.823.823 0 0 1-.28-.602c0-.27.14-.472.28-.602s.315-.223.489-.291c.35-.137.8-.211 1.272-.211zm0 1c-.313 0-.586.044-.789.104.203.06.476.105.79.105.312 0 .584-.045.786-.104a2.832 2.832 0 0 0-.787-.104zM2.031 8.62v-.628a.5.5 0 0 1 1 0v.628c0 .025.01.044.022.057a.046.046 0 0 0 .033.015h2.09c.01 0 .021-.003.033-.015a.08.08 0 0 0 .021-.057v-.628a.5.5 0 0 1 1 0v.628c0 .578-.458 1.072-1.054 1.072h-2.09A1.064 1.064 0 0 1 2.03 8.62zm5.324-.788V.561a.5.5 0 0 1 1 0v7.271l-.01.1a.5.5 0 0 1-.98 0l-.01-.1zm8.317 6.114a3.5 3.5 0 1 0-7 0 3.5 3.5 0 0 0 7 0zm1 0a4.5 4.5 0 1 1-9 0 4.5 4.5 0 0 1 9 0z" />
        <path fill="currentColor"
            d="M14.105 12.394c.07 0 .133.023.181.072.05.047.07.108.063.178v-.001a.378.378 0 0 1-.015.083l-.001.001-.244.747h.163c.058 0 .109.02.15.062a.208.208 0 0 1 .064.15.21.21 0 0 1-.06.152.211.211 0 0 1-.154.059h-.298l-.055.168h.353c.058 0 .109.022.15.063a.208.208 0 0 1 .064.15c0 .059-.02.111-.06.152a.212.212 0 0 1-.154.058h-.492l-.273.84a.31.31 0 0 1-.126.175l-.086.042a.312.312 0 0 1-.287-.053.342.342 0 0 1-.113-.165l-.265-.839h-.758l-.265.84a.328.328 0 0 1-.117.162.294.294 0 0 1-.189.07.319.319 0 0 1-.306-.232l-.273-.84h-.497a.217.217 0 0 1-.148-.057l-.002-.001-.001-.002a.218.218 0 0 1-.058-.15c0-.056.02-.107.058-.148v-.002l.034-.027a.204.204 0 0 1 .117-.037h.357l-.054-.168h-.303a.217.217 0 0 1-.148-.057l-.002-.001-.001-.002a.218.218 0 0 1-.058-.15c0-.056.02-.106.058-.148v-.002a.208.208 0 0 1 .151-.062h.168l-.245-.747-.001-.001a.365.365 0 0 1-.015-.085.216.216 0 0 1 .069-.175l.018-.018a.242.242 0 0 1 .157-.054c.06 0 .116.018.16.055a.261.261 0 0 1 .086.138l.27.887h.813l.27-.878a.267.267 0 0 1 .102-.145l.04-.024a.285.285 0 0 1 .302.023l.003.002a.26.26 0 0 1 .105.144l.27.878h.813l.27-.887a.287.287 0 0 1 .09-.138.239.239 0 0 1 .155-.055zm-2.865 3.108l.041.003a.262.262 0 0 1-.066-.01c.008.002.017.006.025.007zm1.899 0l.042.003a.248.248 0 0 1-.07-.012c.009.003.018.007.028.009zm-2.01-.044zm1.893-.009zm-1.585 0zm.068-.077l.014-.021.016-.04a.27.27 0 0 1-.03.061zm-.229-.57l.096-.314h-.191l.095.314zm1.91 0l.095-.314h-.191l.095.314zm1.066-.367l.035-.003c.006-.001.011-.006.017-.007-.016.004-.033.01-.052.01zm-4.078-.003l.031.003a.167.167 0 0 1-.053-.011l.022.008zm-.11-.086zm4.304.045a.161.161 0 0 1-.042.025c.006-.003.013-.002.019-.006l.023-.02zm.044-.113c0 .018-.005.034-.009.05l.006-.016.003-.034zm-4.353-.054a.166.166 0 0 0-.01.054l.004.032c0 .006.003.011.005.016a.17.17 0 0 1 .001-.103zm4.305-.058a.17.17 0 0 1 .03.043c-.003-.006-.005-.012-.01-.018l-.02-.025zm-4.226-.031a.162.162 0 0 0-.045.031l-.019.025-.008.016a.17.17 0 0 1 .027-.041.162.162 0 0 1 .045-.031zm.036-.013c-.007.001-.013.004-.019.006a.157.157 0 0 1 .05-.009l-.031.003zm4.127.006l-.018-.006-.031-.003c.017 0 .033.004.049.009zm-3.248-.063h.45l.05-.168H11l.053.168zm.931 0h.493l-.052-.168h-.388l-.053.168zm.974 0h.451l.053-.168h-.555l.051.168zm-.787-.591h.12l-.06-.189-.06.189zm-2.001-.805a.494.494 0 0 0-.003-.031l.003.03zm4.112.042a.494.494 0 0 0 .01-.042l.003-.031a.299.299 0 0 1-.013.073zm-.347-.162zm-3.39.042zm3.745-.012l-.003-.012.003.012zm-3.809-.088a.201.201 0 0 1 .037.04l-.012-.017-.025-.023zm3.479.023l-.012.015a.221.221 0 0 1 .036-.038l-.024.023zm.302.007l-.001-.003-.013-.014.014.017zm-3.853-.066l-.017-.005-.036-.003a.21.21 0 0 1 .053.008z" />
    </symbol>
    <symbol id="rental-02" viewBox="0 0 20 20">
        <path fill="currentColor"
            d="M15.334 12.783a.5.5 0 0 1 .704.064l1.13 1.357a.5.5 0 0 1 0 .64l-1.13 1.357a.5.5 0 0 1-.768-.64l.447-.537H14.07a.5.5 0 0 1 0-1h1.648l-.448-.537a.5.5 0 0 1 .064-.704z" />
        <path fill="currentColor"
            d="M18.998 14.523a3.571 3.571 0 1 0-7.143 0 3.571 3.571 0 0 0 7.143 0zm1 0a4.571 4.571 0 1 1-9.142 0 4.571 4.571 0 0 1 9.142 0z" />
        <path fill="currentColor"
            d="M17.62 9.31c-.001-.517-.297-1.011-.896-1.176a2.22 2.22 0 0 1-1.341-3.236c.593-1.043-.512-2.199-1.56-1.714l-.101.052a2.22 2.22 0 0 1-3.237-1.34C10.157.7 8.462.7 8.134 1.896a2.22 2.22 0 0 1-3.236 1.34c-1.076-.612-2.274.586-1.662 1.662a2.22 2.22 0 0 1-1.34 3.236c-1.157.318-1.193 1.918-.109 2.316l.108.035.13.04a2.22 2.22 0 0 1 1.211 3.197c-.612 1.076.585 2.273 1.662 1.66a2.22 2.22 0 0 1 3.236 1.343c.164.598.659.894 1.175.894a.5.5 0 0 1 0 1c-.908 0-1.84-.544-2.14-1.63a1.219 1.219 0 0 0-1.777-.736c-1.96 1.114-4.14-1.065-3.026-3.025a1.22 1.22 0 0 0-.736-1.779c-2.173-.6-2.173-3.68 0-4.279a1.219 1.219 0 0 0 .736-1.777c-1.114-1.96 1.066-4.141 3.026-3.027A1.22 1.22 0 0 0 7.17 1.63c.598-2.173 3.68-2.173 4.28 0l.046.14a1.22 1.22 0 0 0 1.731.596l.185-.094c1.909-.883 3.92 1.222 2.84 3.12a1.22 1.22 0 0 0 .737 1.778c1.086.299 1.63 1.23 1.63 2.14a.5.5 0 0 1-1 0z" />
        <path fill="currentColor"
            d="M10.62 9.31a1.31 1.31 0 1 0-2.62 0 1.31 1.31 0 0 0 2.62 0zm1 0a2.31 2.31 0 1 1-4.62 0 2.31 2.31 0 0 1 4.62 0z" />
    </symbol>
    <symbol id="left-arrow" viewBox="0 0 18 13">
        <path fill="currentColor"
            d="M6.818 12.732a1 1 0 0 1-1.414-.049l-5.133-5.5a1 1 0 0 1 0-1.365l5.133-5.5a1 1 0 0 1 1.463 1.365L3.304 5.501h13.098a1 1 0 1 1 0 2H3.304l3.563 3.817a1.001 1.001 0 0 1-.049 1.414z" />
    </symbol>
    <symbol id="rental-06" viewBox="0 0 16 18">
        <path fill="currentColor"
            d="M9.763 8.5H8.99a.5.5 0 0 1 0-1h.773a.5.5 0 0 1 0 1zm0-3.97H3.586a.5.5 0 0 1 0-1h6.177a.5.5 0 0 1 0 1zM6.288 8.5H3.586a.5.5 0 0 1 0-1h2.702a.5.5 0 0 1 0 1zM5.13 12.47H3.586a.5.5 0 0 1 0-1H5.13a.5.5 0 0 1 0 1z" />
        <path fill="currentColor"
            d="M12.352 8V4.03c0-.846 0-1.433-.055-1.875-.054-.43-.153-.648-.292-.797-.135-.144-.324-.243-.71-.298C10.89 1 10.35 1 9.559 1H3.794c-.791 0-1.33.001-1.735.06-.387.055-.577.154-.711.298-.14.15-.237.367-.291.797C1 2.597 1 3.185 1 4.03v9.933c0 .53 0 .882.032 1.136.031.249.082.3.095.311l.053.04c.002.001.044.033.254-.02.225-.055.526-.176.993-.364.27-.11.537-.227.825-.22l.118.008c.285.035.535.19.788.337l.58.334c.306.178.348.194.377.199.04.006.083.003.123-.01.03-.008.072-.03.355-.248.15-.117.284-.22.404-.296a.5.5 0 0 1 .535.845 5.005 5.005 0 0 0-.329.242c-.217.168-.426.338-.672.414a1.271 1.271 0 0 1-.575.04c-.255-.041-.484-.184-.719-.32l-.58-.334c-.33-.191-.373-.205-.406-.21l-.024-.001c-.033-.001-.076.006-.426.147-.438.177-.816.33-1.126.407-.32.08-.674.107-1.007-.09a1.33 1.33 0 0 1-.214-.16c-.277-.252-.373-.594-.414-.927-.041-.33-.04-.756-.04-1.26V4.029c0-.818 0-1.479.064-1.998.067-.53.21-.987.553-1.355.348-.373.789-.533 1.299-.607C2.408 0 3.033 0 3.794 0h5.765c.76 0 1.386-.002 1.879.07.51.073.95.233 1.298.606.343.368.486.825.553 1.355.065.52.063 1.18.063 1.998V8a.5.5 0 1 1-1 0z" />
        <path fill="currentColor"
            d="M15 13.294a3.47 3.47 0 1 0-6.942 0 3.47 3.47 0 0 0 6.942 0zm1 0a4.47 4.47 0 1 1-8.942 0 4.47 4.47 0 0 1 8.942 0z" />
        <path fill="currentColor"
            d="M12.413 11.734a.5.5 0 0 1 .882.473l-1.26 2.35c-.102.191-.195.367-.284.5a1.04 1.04 0 0 1-.417.388 1 1 0 0 1-.745.041 1.042 1.042 0 0 1-.457-.34c-.103-.123-.214-.288-.337-.466a.5.5 0 1 1 .824-.566c.134.196.215.313.28.39l.01.01.009-.01c.056-.085.124-.21.236-.42l1.259-2.35z" />
    </symbol>
    <symbol id="rental-05" viewBox="0 0 20 23">
        <path fill="currentColor"
            d="M14.638 9.59c0-.485-.002-.8-.033-1.03-.029-.217-.076-.286-.114-.324-.038-.038-.106-.085-.323-.114-.231-.031-.545-.032-1.03-.032H5.89c-.486 0-.8.001-1.03.032-.218.03-.286.076-.324.114-.038.038-.085.107-.114.324-.031.23-.032.545-.032 1.03v3.786l.005.611c.004.168.011.305.027.42.029.217.076.284.114.322.038.039.106.086.323.115.232.03.545.032 1.03.032h7.248c.485 0 .799-.001 1.03-.032.217-.03.285-.076.323-.114.038-.039.085-.107.114-.323.032-.231.033-.546.033-1.031V9.59zm1 3.786c0 .457 0 .85-.041 1.164-.044.328-.144.642-.399.897-.255.254-.569.354-.896.398-.314.042-.707.041-1.164.041H5.89c-.458 0-.851.001-1.164-.041-.328-.044-.642-.144-.897-.399-.255-.254-.354-.568-.398-.896a5.006 5.006 0 0 1-.036-.528l-.005-.636V9.59c0-.457-.001-.85.04-1.164.045-.328.144-.642.4-.897.254-.254.568-.354.896-.398.313-.042.706-.041 1.164-.041h7.247c.457 0 .85-.001 1.164.04.327.045.642.145.896.4.255.254.355.568.399.896.042.313.04.707.04 1.164v3.786z" />
        <path fill="currentColor"
            d="M15.071 9.618a.5.5 0 0 1 0 1H3.96a.5.5 0 0 1 0-1h11.112zm-5.555 3.096a.5.5 0 0 1 0 1H6.055a.5.5 0 0 1 0-1h3.46z" />
        <path fill="currentColor"
            d="M10.262 19.959l-1.427-2.473a.476.476 0 1 0-.825.476l.94 1.629a8.56 8.56 0 0 1-6.845-4.244 8.573 8.573 0 0 1 4.35-12.296.476.476 0 0 0-.335-.89 9.372 9.372 0 0 0-1.364.648 9.528 9.528 0 0 0-3.484 13 9.525 9.525 0 0 0 7.103 4.69l-1.236.714a.476.476 0 0 0 .476.824l2.473-1.428a.476.476 0 0 0 .174-.65zm8.762-9.194c-.141-4.772-3.773-8.608-8.374-9.162l1.24-.715a.476.476 0 1 0-.477-.824L8.94 1.492a.476.476 0 0 0-.173.65l1.427 2.472a.476.476 0 0 0 .824-.476l-.94-1.629a8.561 8.561 0 0 1 6.846 4.244 8.573 8.573 0 0 1-4.35 12.297h-.003a.475.475 0 0 0 .338.89 9.381 9.381 0 0 0 1.364-.648 9.525 9.525 0 0 0 4.751-8.527z" />
    </symbol>
    <symbol id="rental-08" viewBox="0 0 18 21">
        <path fill="currentColor"
            d="M8.865 0a8.865 8.865 0 0 1 8.855 8.426c.022.082.036.167.039.253v3.303c0 .044-.004.087-.007.13.02.076.025.156.007.234a8.856 8.856 0 0 1-6.878 6.681h-.047a1.976 1.976 0 0 1-1.744 1.065 1.979 1.979 0 1 1 1.964-2.095 7.931 7.931 0 0 0 3.551-1.972 7.929 7.929 0 0 0 1.595-2.172 1.907 1.907 0 0 1-.382.034h-.214a1.914 1.914 0 0 1-1.914-1.867V9.434a1.867 1.867 0 0 1 1.914-1.867h.932c.05-.003.102-.001.152.002a7.93 7.93 0 0 0-15.643-.02c.071-.012.143-.019.216-.019h1.092a1.718 1.718 0 0 1 1.716 1.71v2.893a1.72 1.72 0 0 1-1.716 1.755h-.607a1.72 1.72 0 0 1-1.718-1.755V9.02A.465.465 0 0 1 0 8.865 8.865 8.865 0 0 1 8.865 0zm.225 17.078a1.045 1.045 0 1 0-.02 2.09 1.045 1.045 0 0 0 .02-2.09zM1.26 8.465a.299.299 0 0 0-.298.298v3.369a.785.785 0 0 0 .784.784h.607a.784.784 0 0 0 .783-.784V9.239a.785.785 0 0 0-.783-.774H1.26zm14.249 0a.934.934 0 0 0-.81.564.932.932 0 0 0-.076.368v2.548a.932.932 0 0 0 .98.934h.215a.934.934 0 0 0 .933-.934V8.68a.215.215 0 0 0-.066-.156.214.214 0 0 0-.073-.045.215.215 0 0 0-.085-.013H15.51zM5.395 10.04a.374.374 0 0 1 .494.177 3.287 3.287 0 0 0 4.76 1.396c.53-.34.95-.825 1.212-1.396a.383.383 0 0 1 .616-.094.367.367 0 0 1 .101.27.363.363 0 0 1-.036.141 4.051 4.051 0 0 1-3.667 2.343 4.041 4.041 0 0 1-3.658-2.343.365.365 0 0 1 .178-.494zm1.548-4.834c.311 0 .466.156.466.467v1.38c0 .312-.155.467-.466.467H6.71c-.311 0-.467-.155-.467-.466v-1.38c0-.311.156-.467.467-.467h.233zm4.107 0c.31 0 .466.156.466.467v1.38c0 .312-.155.467-.466.467h-.234c-.31 0-.466-.155-.466-.466v-1.38c0-.311.155-.467.466-.467h.234z" />
    </symbol>
    <symbol id="right" viewBox="0 0 7 12">
        <path fill="currentColor"
            d="M1.278 11.28a.75.75 0 1 1-1.06-1.06l4.47-4.47-4.47-4.47A.75.75 0 1 1 1.278.22l5.53 5.53-5.53 5.53z" />
    </symbol>
    <symbol id="supplies-02" viewBox="0 0 30 30">
        <path fill="currentColor"
            d="M27.5 15c0-6.904-5.596-12.5-12.5-12.5S2.5 8.096 2.5 15 8.096 27.5 15 27.5V29C7.268 29 1 22.732 1 15S7.268 1 15 1s14 6.268 14 14-6.268 14-14 14v-1.5c6.904 0 12.5-5.596 12.5-12.5z" />
        <path fill="currentColor"
            d="M24.5 15a9.5 9.5 0 1 0-9.5 9.5V26C8.925 26 4 21.075 4 15S8.925 4 15 4s11 4.925 11 11-4.925 11-11 11v-1.5a9.5 9.5 0 0 0 9.5-9.5z" />
    </symbol>
    <symbol id="supplies-03" viewBox="0 0 24 27">
        <path fill="currentColor" fill-rule="evenodd"
            d="M21.375 4H2.625v19.333h18.75V4zM1.125 2.667v21.325h21.75V2.667H1.125z"
            clip-rule="evenodd" />
        <path fill="currentColor" fill-rule="evenodd"
            d="M1.5 1.333v1.334h21V1.333h-21zM.75 0C.336 0 0 .298 0 .667v2.666C0 3.702.336 4 .75 4h22.5c.414 0 .75-.298.75-.667V.667C24 .298 23.664 0 23.25 0H.75zM22.5 25.667v-1.334h-21v1.334h21zM23.25 27c.414 0 .75-.299.75-.667v-2.666c0-.369-.336-.667-.75-.667H.75c-.414 0-.75.299-.75.667v2.666c0 .369.336.667.75.667h22.5z"
            clip-rule="evenodd" />
        <path fill="currentColor" fill-rule="evenodd"
            d="M3.75 13V3.667h1.5V13h1.5V3.667h1.5V13h1.5V3.667h1.5V13h1.5V3.667h1.5V13h1.5V3.667h1.5V13h1.5V3.667h1.5V13h1.875v1.333H20.25v9.334h-1.5v-9.334h-1.5v9.334h-1.5v-9.334h-1.5v9.334h-1.5v-9.334h-1.5v9.334h-1.5v-9.334h-1.5v9.334h-1.5v-9.334h-1.5v9.334h-1.5v-9.334H1.875V13H3.75z"
            clip-rule="evenodd" />
    </symbol>
    <symbol id="supplies-01" viewBox="0 0 30 24">
        <g fill="currentColor" clip-path="url(#a)">
            <path
                d="M1.63 20.742v-19.6a.75.75 0 1 1 1.5 0v19.6c0 1.034.837 1.872 1.875 1.872h20.157a1.873 1.873 0 0 0 1.875-1.872v-19.6a.75.75 0 0 1 1.5 0v19.6a3.373 3.373 0 0 1-3.375 3.372H5.005a3.372 3.372 0 0 1-3.375-3.372z" />
            <path
                d="M24.404 6.032a.75.75 0 0 1 0 1.5h-3.173a.75.75 0 0 1 0-1.5h3.173zm0 3.518a.75.75 0 0 1 0 1.5h-3.173a.75.75 0 0 1 0-1.5h3.173zm0 3.524a.75.75 0 0 1 0 1.5h-3.173a.75.75 0 0 1 0-1.5h3.173zm0 3.524a.75.75 0 0 1 0 1.5h-3.173a.75.75 0 0 1 0-1.5h3.173zM29.373-.114a.75.75 0 1 1 0 1.5H.793a.75.75 0 1 1 0-1.5h28.58z" />
        </g>
        <defs>
            <clipPath id="a">
                <path fill="currentColor" d="M0 0h30v24H0z" />
            </clipPath>
        </defs>
    </symbol>
    <symbol id="burger" viewBox="0 0 16 12">
        <path fill="currentColor"
            d="M15 10a1 1 0 1 1 0 2H1a1 1 0 1 1 0-2h14zm0-5a1 1 0 1 1 0 2H1a1 1 0 0 1 0-2h14zm0-5a1 1 0 1 1 0 2H1a1 1 0 0 1 0-2h14z" />
    </symbol>
    <symbol id="rental-07" viewBox="0 0 20 19">
        <path fill="currentColor"
            d="M11.099 1.91c0 .023.014-.034-.141-.157-.15-.12-.398-.249-.748-.366C9.514 1.153 8.52 1 7.4 1s-2.113.153-2.808.387c-.35.117-.598.247-.748.366-.155.123-.14.18-.14.157-.001-.022-.015.036.14.158.15.12.397.248.748.366.695.233 1.689.387 2.808.387 1.12 0 2.114-.154 2.81-.387.35-.118.598-.247.748-.366.154-.122.14-.18.14-.158zm1 0c0 .412-.25.726-.519.94-.275.22-.643.394-1.052.532-.823.277-1.93.44-3.128.44-1.198 0-2.303-.164-3.127-.44-.409-.138-.776-.313-1.051-.531-.27-.215-.519-.53-.519-.94 0-.413.249-.727.519-.941.275-.219.642-.393 1.051-.53C5.097.162 6.203 0 7.4 0c1.2 0 2.305.163 3.128.44.41.137.777.311 1.052.53.27.214.518.528.519.94zM3.703 4.127c0-.023-.014.034.14.157.15.12.398.249.749.366.695.234 1.689.387 2.808.387 1.12 0 2.114-.153 2.81-.387.35-.117.598-.247.748-.366.155-.123.14-.18.14-.157h1c0 .412-.248.726-.518.94-.275.219-.643.394-1.052.532-.823.276-1.93.438-3.128.438-1.198 0-2.303-.162-3.127-.438-.409-.138-.776-.313-1.051-.532-.27-.214-.519-.528-.519-.94h1zm0 2.216c0-.023-.014.034.14.157.15.119.398.248.749.366.695.234 1.689.387 2.808.387 1.12 0 2.114-.153 2.81-.387.35-.118.598-.247.748-.366.155-.123.14-.18.14-.157h1c0 .411-.248.726-.518.94-.275.219-.643.394-1.052.531-.823.277-1.93.439-3.128.439-1.198 0-2.303-.162-3.127-.439-.409-.137-.776-.312-1.051-.53-.27-.215-.519-.53-.519-.941h1zm6.559 2.751a.5.5 0 0 1 .318.947 7.245 7.245 0 0 1-1.082.262.5.5 0 1 1-.168-.985 6.24 6.24 0 0 0 .932-.224z" />
        <path fill="currentColor"
            d="M2.703 8.156V1.91a.5.5 0 1 1 1 0v6.246a.5.5 0 1 1-1 0zm8.395.761V1.91a.5.5 0 1 1 1 0v7.007a.5.5 0 0 1-1 0z" />
        <path fill="currentColor"
            d="M18.153 9.97c0 .022.014-.035-.14-.158-.15-.118-.398-.248-.748-.366-.696-.233-1.69-.386-2.81-.386s-2.113.153-2.809.386c-.35.118-.598.248-.748.367-.154.123-.14.18-.14.157 0-.022-.014.035.14.158.15.119.398.247.748.365.696.234 1.69.388 2.81.388s2.113-.154 2.809-.388c.35-.118.598-.246.748-.365.154-.123.14-.18.14-.158zm1 0c0 .411-.249.726-.518.94-.275.219-.643.394-1.052.531-.823.277-1.93.44-3.128.44-1.198 0-2.303-.163-3.127-.44-.41-.137-.777-.312-1.052-.53-.27-.215-.518-.53-.518-.941 0-.412.249-.726.518-.94.275-.22.643-.393 1.052-.531.824-.277 1.929-.44 3.127-.44 1.198 0 2.304.163 3.128.44.41.137.777.312 1.052.53.27.215.518.53.518.94zm-8.395 2.216c0-.022-.014.035.14.158.15.119.398.248.748.366.696.234 1.69.387 2.81.387s2.113-.153 2.809-.387c.35-.118.598-.247.748-.366.154-.123.14-.18.14-.158h1c0 .412-.248.726-.518.94-.275.22-.643.395-1.052.532-.823.277-1.93.439-3.128.439-1.198 0-2.303-.162-3.127-.439-.41-.137-.777-.313-1.052-.531-.27-.215-.518-.529-.518-.94h1zm0 2.216c0-.022-.014.035.14.158.15.118.398.248.748.366.696.233 1.69.386 2.81.386s2.113-.152 2.809-.386c.35-.118.598-.248.748-.367.154-.122.14-.18.14-.157h1c0 .412-.248.726-.518.94-.275.22-.643.394-1.052.532-.823.277-1.93.438-3.128.438-1.198 0-2.303-.161-3.127-.438-.41-.138-.777-.313-1.052-.531-.27-.215-.518-.529-.518-.94h1z" />
        <path fill="currentColor"
            d="M10.758 16.204c0-.022-.014.034.14.157.15.12.398.249.748.366.696.234 1.69.387 2.81.387s2.113-.153 2.809-.387c.35-.117.598-.247.748-.366.154-.123.14-.18.14-.157h1c0 .412-.248.726-.518.94-.275.219-.643.394-1.052.532-.823.276-1.93.438-3.128.438-1.198 0-2.303-.162-3.127-.438-.41-.138-.777-.313-1.052-.532-.27-.214-.518-.528-.518-.94h1z" />
        <path fill="currentColor"
            d="M9.758 16.264V9.97a.5.5 0 1 1 1 0v6.294a.5.5 0 0 1-1 0zm8.394 0V9.97a.5.5 0 0 1 1 0v6.294a.5.5 0 0 1-1 0zM8.107 13.562a3.554 3.554 0 1 0-7.108 0 3.554 3.554 0 0 0 7.108 0zm1 0A4.554 4.554 0 1 1 0 13.56a4.554 4.554 0 0 1 9.108 0z" />
        <path fill="currentColor"
            d="M6.516 11.987c.071 0 .134.024.183.073a.21.21 0 0 1 .064.18h-.001a.37.37 0 0 1-.014.083v.003l-.249.755h.165a.21.21 0 0 1 .152.065.21.21 0 0 1 .065.152.209.209 0 0 1-.06.152.216.216 0 0 1-.157.06h-.302l-.055.17h.357a.21.21 0 0 1 .152.065.21.21 0 0 1 .065.153.21.21 0 0 1-.06.152.215.215 0 0 1-.157.06h-.498l-.276.85a.313.313 0 0 1-.128.178.319.319 0 0 1-.378-.011l-.001-.001a.346.346 0 0 1-.114-.166L5 14.11h-.77l-.267.85a.335.335 0 0 1-.118.166.3.3 0 0 1-.193.07.32.32 0 0 1-.184-.058.343.343 0 0 1-.125-.176l-.001-.001-.277-.852h-.503a.218.218 0 0 1-.15-.057l-.004-.004a.219.219 0 0 1-.057-.15c0-.058.019-.109.057-.15l.002-.003.033-.027a.208.208 0 0 1 .12-.037h.362l-.056-.17h-.307a.219.219 0 0 1-.15-.059l-.004-.004a.218.218 0 0 1-.057-.15c0-.057.019-.108.057-.15l.002-.002a.21.21 0 0 1 .152-.065h.17l-.248-.755v-.003a.364.364 0 0 1-.015-.086l.002-.05a.213.213 0 0 1 .066-.127l.019-.017a.246.246 0 0 1 .16-.056c.061 0 .116.019.162.057a.264.264 0 0 1 .087.14l.273.897h.824l.274-.889a.27.27 0 0 1 .102-.146l.041-.025a.29.29 0 0 1 .136-.034c.063 0 .12.02.17.058h.001l.003.002a.263.263 0 0 1 .106.145l.273.89h.824l.274-.898a.292.292 0 0 1 .091-.14.24.24 0 0 1 .158-.057zm-2.904 3.15l.041.004a.266.266 0 0 1-.066-.01l.025.007zm1.924 0l.043.004a.249.249 0 0 1-.071-.013c.01.003.018.007.028.009zM3.5 15.093zm1.917-.009zm-1.606 0zm.068-.076l.017-.025.016-.04a.27.27 0 0 1-.033.065zm-.23-.58l.097-.319h-.194l.096.319zm1.934 0l.098-.319h-.195l.097.319zm1.081-.372l.035-.003c.006-.001.01-.006.016-.007-.016.004-.032.01-.05.01zm-4.132-.003l.031.003a.17.17 0 0 1-.053-.011l.022.008zm-.112-.09zm4.362.049c-.01.01-.024.016-.038.023.005-.002.01-.002.015-.005l.023-.018zm.044-.114a.177.177 0 0 1-.01.051c.002-.006.006-.012.007-.018l.003-.033zm-4.411-.056a.17.17 0 0 0-.009.056l.003.032.006.018a.17.17 0 0 1 0-.106zm.083-.092a.167.167 0 0 0-.048.034l-.02.025-.008.018a.167.167 0 0 1 .028-.043.167.167 0 0 1 .048-.034zm4.28.034a.157.157 0 0 1 .029.04l-.008-.015-.02-.025zm-4.246-.046l-.022.008a.155.155 0 0 1 .053-.01l-.03.002zm4.185.008l-.02-.008-.033-.003c.019 0 .036.005.053.011zm-3.294-.065h.457l.05-.17h-.56l.053.17zm.943 0h.5l-.053-.17H4.42l-.054.17zm.988 0h.457l.052-.17h-.561l.052.17zm-.798-.6h.12l-.06-.19-.06.19zm-2.029-.814a.49.49 0 0 0-.003-.033l.003.033zm4.168.042a.485.485 0 0 0 .01-.042l.003-.033a.303.303 0 0 1-.013.075zm-.348-.17zm-3.438.049zm3.794-.013c0-.004 0-.008-.002-.01l.002.01zm-.335-.066a.216.216 0 0 0 .025-.023l-.025.023zm-3.524-.023a.205.205 0 0 1 .035.04l-.01-.017-.025-.023zm3.83.028l-.001-.002-.013-.013.014.015zM2.77 12.05l-.018-.005-.036-.003c.019 0 .037.004.054.008z" />
    </symbol>
    <symbol id="top" viewBox="0 0 12 7">
        <path fill="currentColor"
            d="M11.28 5.53a.75.75 0 1 1-1.06 1.061l-4.47-4.47-4.47 4.47a.75.75 0 1 1-1.06-1.06L5.75 0l5.53 5.53z" />
    </symbol>
    <symbol id="chk" viewBox="0 0 13 9">
        <path fill="currentColor"
            d="M.31 5.723a1 1 0 0 1 1.38-1.447L4.165 6.64l7.17-6.387a1 1 0 0 1 1.33 1.494l-7.857 7a1 1 0 0 1-1.356-.024l-3.142-3z" />
    </symbol>
    <symbol id="search" viewBox="0 0 19 19">
        <path fill="currentColor"
            d="M12.75 7.375a5.375 5.375 0 1 0-10.75 0 5.375 5.375 0 0 0 10.75 0zm2 0a7.375 7.375 0 1 1-14.75 0 7.375 7.375 0 0 1 14.75 0z" />
        <path fill="currentColor"
            d="M18.707 17.293a1 1 0 0 1-1.414 1.414l-5.667-5.667a1 1 0 0 1 1.414-1.414l5.667 5.667z" />
    </symbol>
    <symbol id="clock" viewBox="0 0 14 14">
        <path fill="currentColor"
            d="M13 7A6 6 0 1 0 1 7a6 6 0 0 0 12 0zm1 0A7 7 0 1 1 0 7a7 7 0 0 1 14 0z" />
        <path fill="currentColor" d="M6.5 6.889V4a.5.5 0 0 1 1 0v2.889a.5.5 0 0 1-1 0z" />
        <path fill="currentColor" d="M7.002 6.5a.5.5 0 0 1 0 1H3.39a.5.5 0 0 1 0-1h3.611z" />
    </symbol>
    <symbol id="bottom" viewBox="0 0 12 7">
        <path fill="currentColor"
            d="M.22 1.28A.75.75 0 1 1 1.28.22l4.47 4.47L10.22.22a.75.75 0 1 1 1.06 1.06L5.75 6.81.22 1.28z" />
    </symbol>
    <symbol id="calendar" viewBox="0 0 17 17">
        <path fill="currentColor"
            d="M15.407 7.019v-.516H1v5.404c0 .957 0 1.625.068 2.128.066.49.187.748.371.933.185.184.444.305.933.37.504.069 1.171.07 2.128.07h1.926a.5.5 0 0 1 0 1H4.5c-.928 0-1.675 0-2.26-.078-.6-.08-1.106-.254-1.508-.655-.4-.401-.573-.906-.654-1.506C0 13.583 0 12.836 0 11.907V6.15c0-.928 0-1.675.078-2.26.08-.6.253-1.106.654-1.507.402-.401.907-.574 1.507-.654.309-.042.662-.06 1.063-.07V.5a.5.5 0 0 1 1 0v1.15h7.803V.5a.5.5 0 0 1 1 0v1.16c.401.008.755.027 1.063.069.6.08 1.106.253 1.507.654.401.401.574.907.655 1.507.079.585.077 1.332.077 2.26v.869a.5.5 0 1 1-1 0zm-3.302-3.217v-1.15l-.199-.002H4.501l-.2.001v1.15a.5.5 0 0 1-1 0V2.66a9.071 9.071 0 0 0-.929.06c-.489.066-.748.186-.933.37-.184.185-.305.445-.37.933-.052.382-.06.857-.064 1.48h14.397c-.003-.623-.012-1.098-.063-1.48-.066-.488-.187-.748-.371-.932-.185-.184-.444-.305-.933-.37a8.632 8.632 0 0 0-.93-.06v1.142a.5.5 0 0 1-1 0z" />
        <path fill="currentColor"
            d="M16.002 12.944a3.056 3.056 0 1 0-6.112 0 3.056 3.056 0 0 0 6.112 0zm1 0a4.056 4.056 0 1 1-8.112 0 4.056 4.056 0 0 1 8.112 0z" />
        <path fill="currentColor"
            d="M12.445 11.76a.5.5 0 1 1 1 0v.685h.686a.5.5 0 0 1 0 1h-1.186a.5.5 0 0 1-.5-.5v-1.186z" />
    </symbol>
    <symbol id="close" viewBox="0 0 16 16">
        <path fill="currentColor" fill-rule="evenodd"
            d="M15.225.775a.938.938 0 0 1 0 1.325L9.325 8l5.9 5.9a.937.937 0 0 1-1.325 1.325L8 9.325l-5.9 5.9A.938.938 0 0 1 .775 13.9l5.9-5.9-5.9-5.9A.937.937 0 1 1 2.1.775l5.9 5.9 5.9-5.9a.937.937 0 0 1 1.325 0z"
            clip-rule="evenodd" />
        <path fill="currentColor"
            d="M13.546.421a1.438 1.438 0 0 1 2.033 2.033L10.033 8l5.546 5.546a1.438 1.438 0 0 1-2.033 2.033L8 10.033 2.454 15.58a1.438 1.438 0 0 1-2.033-2.033L5.967 8 .42 2.454A1.438 1.438 0 0 1 2.454.421L8 5.967 13.546.42zm1.326.707a.438.438 0 0 0-.619 0l-5.9 5.9a.5.5 0 0 1-.706 0l-5.9-5.9a.438.438 0 0 0-.619.62l5.9 5.899a.5.5 0 0 1 0 .707l-5.9 5.9a.438.438 0 0 0 .62.618l5.899-5.9.076-.062a.5.5 0 0 1 .63.063l5.9 5.9a.438.438 0 0 0 .62-.62l-5.9-5.9a.5.5 0 0 1 0-.706l5.9-5.9a.438.438 0 0 0 0-.619z" />
    </symbol>
    <symbol id="card" viewBox="0 0 17 12">
        <path fill="currentColor"
            d="M14.783 10.212s.002 0 .002-.002l.005-.01a.719.719 0 0 0 .037-.167c.028-.21.03-.505.03-.997V2.75c0-.492-.002-.786-.03-.997a.717.717 0 0 0-.042-.178l-.002-.002h-.002l-.01-.006a.715.715 0 0 0-.167-.037c-.21-.028-.504-.03-.997-.03H2.75c-.492 0-.786.002-.997.03a.713.713 0 0 0-.178.042l-.002.001v.002a.713.713 0 0 0-.042.178c-.029.21-.031.505-.031.997v6.286c0 .492.002.787.03.997a.716.716 0 0 0 .037.167l.005.01.001.003v-.001l.002.002a.719.719 0 0 0 .178.042c.21.028.505.03.997.03h10.857c.493 0 .787-.002.998-.03a.717.717 0 0 0 .166-.037l.01-.005.002-.002zm1.574-1.176c0 .45.001.864-.043 1.197-.048.356-.16.732-.47 1.04-.308.31-.684.421-1.04.47-.333.044-.747.043-1.197.043H2.75c-.45 0-.863.001-1.197-.044-.356-.048-.731-.16-1.04-.469-.31-.309-.422-.684-.47-1.04C-.002 9.9 0 9.486 0 9.036V2.75c0-.45-.002-.863.043-1.197.048-.356.16-.731.47-1.04.309-.31.684-.422 1.04-.47C1.887-.002 2.3 0 2.75 0h10.857c.45 0 .864-.002 1.198.043.355.048.73.16 1.04.47.309.309.42.684.469 1.04.044.334.043.747.043 1.197v6.286z" />
        <path fill="currentColor"
            d="M15.43 3.25a.75.75 0 0 1 0 1.5H.93a.75.75 0 0 1 0-1.5h14.5zM8.18 7.429a.75.75 0 1 1 0 1.5H3.61a.75.75 0 1 1 0-1.5h4.57z" />
    </symbol>
    <symbol id="rental-04" viewBox="0 0 17 18">
        <path fill="currentColor"
            d="M11.556 9.389V2.277c0-.433-.002-.707-.029-.908-.025-.186-.064-.233-.086-.255-.021-.022-.068-.06-.255-.086-.2-.027-.476-.028-.909-.028h-8c-.433 0-.707.001-.908.028-.186.025-.233.064-.255.086-.022.022-.06.069-.086.255-.027.201-.028.475-.028.908v12.445c0 .433.001.708.028.909.025.186.064.233.086.255.022.022.069.06.255.086.201.027.475.028.908.028h3.711a.5.5 0 0 1 0 1h-3.71c-.405 0-.76.001-1.043-.037-.297-.04-.59-.132-.828-.37-.238-.239-.33-.532-.37-.83C0 15.482 0 15.127 0 14.723V2.277c0-.404-.001-.759.037-1.042.04-.297.132-.59.37-.828.239-.238.531-.33.828-.37C1.518 0 1.873 0 2.277 0h8c.405 0 .76 0 1.042.037.298.04.59.132.83.37.238.239.33.531.37.828.038.283.037.638.037 1.042V9.39a.5.5 0 0 1-1 0z" />
        <path fill="currentColor"
            d="M3.277 9.777a.5.5 0 0 1 0 1h-1a.5.5 0 1 1 0-1h1zm3.535 0a.5.5 0 0 1 0 1H4.777a.5.5 0 1 1 0-1h2.035zM3.277 7.111a.5.5 0 1 1 0 1h-1a.5.5 0 0 1 0-1h1zm7 0a.5.5 0 1 1 0 1h-5.5a.5.5 0 0 1 0-1h5.5zm-7-2.667a.5.5 0 1 1 0 1h-1a.5.5 0 0 1 0-1h1zm7 0a.5.5 0 1 1 0 1h-5.5a.5.5 0 0 1 0-1h5.5zM3.986 1.777a.5.5 0 0 1 0 1H2.277a.5.5 0 1 1 0-1h1.71zm11.698 11.39c0-.485-.002-.8-.033-1.03-.029-.217-.076-.286-.114-.324-.038-.038-.106-.085-.323-.114-.231-.03-.545-.032-1.03-.032H9.93c-.486 0-.8.001-1.03.032-.217.03-.286.076-.324.114-.038.038-.085.107-.114.324-.031.23-.032.545-.032 1.03v1.714c0 .485 0 .8.032 1.031.029.216.076.284.114.322.038.038.107.085.323.115.232.03.545.032 1.03.032h4.255c.485 0 .799-.001 1.03-.032.217-.03.285-.077.323-.115.038-.038.085-.106.114-.322.031-.231.033-.546.033-1.031v-1.714zm1 1.714c0 .457 0 .85-.041 1.164-.044.328-.144.642-.399.896-.255.255-.569.355-.896.399-.314.042-.707.04-1.164.04H9.93c-.458 0-.851.002-1.164-.04-.328-.044-.642-.144-.897-.399-.255-.254-.354-.568-.398-.896-.042-.313-.041-.707-.041-1.164v-1.714c0-.457-.001-.85.04-1.164.045-.328.144-.642.4-.897.254-.254.568-.354.896-.398.313-.042.706-.041 1.164-.041h4.254c.457 0 .85-.001 1.164.041.327.044.641.144.896.398.255.255.355.57.399.897.042.313.04.707.04 1.164v1.714z" />
        <path fill="currentColor"
            d="M16.002 12.389a.5.5 0 1 1 0 1H8.113a.5.5 0 0 1 0-1h7.889zm-3.942 2.405a.5.5 0 0 1 0 1H9.52a.5.5 0 1 1 0-1h2.54z" />
    </symbol>
    <symbol id="main-menu-01" viewBox="0 0 22 15">
        <path fill="currentColor"
            d="M20.223 2.5c0-.485-.002-.799-.033-1.03-.029-.217-.076-.285-.114-.324-.038-.038-.106-.085-.322-.114-.231-.03-.546-.032-1.031-.032H2.5c-.485 0-.799.001-1.03.032-.217.03-.285.076-.324.114-.038.039-.085.107-.114.324C1.002 1.7 1 2.015 1 2.5v10c0 .486.001.8.032 1.031.03.217.076.284.114.322.039.039.107.087.324.116.23.03.545.031 1.03.031h16.223c.485 0 .8 0 1.03-.031.218-.03.285-.077.323-.115.038-.039.085-.106.114-.323.031-.231.033-.546.033-1.031v-10zm1 10c0 .457 0 .85-.041 1.164-.044.328-.144.643-.399.898-.255.254-.569.353-.896.397-.314.042-.707.041-1.164.041H2.5c-.457 0-.85.001-1.164-.041-.328-.044-.642-.143-.897-.397-.254-.255-.354-.57-.398-.898C-.001 13.351 0 12.957 0 12.5v-10c0-.457-.001-.85.041-1.164.044-.328.144-.642.398-.897.255-.254.57-.354.897-.398C1.649-.001 2.043 0 2.5 0h16.223c.457 0 .85-.001 1.164.041.327.044.641.144.896.398.255.255.355.57.399.897.042.313.04.707.04 1.164v10z" />
        <path fill="currentColor"
            d="M20.475 4.944a.5.5 0 1 1 0 1H.613a.5.5 0 0 1 0-1h19.862zm-9.862 5.167a.5.5 0 0 1 0 1H4.391a.5.5 0 1 1 0-1h6.222z" />
    </symbol>
    <symbol id="sub-menu-01" viewBox="0 0 18 17">
        <path fill="currentColor"
            d="M17 6.988c0-1.993-.867-3.465-2.277-4.457C13.293 1.526 11.279 1 9 1 4.44 1 1 3.667 1 6.988c0 1.57.747 3.138 1.996 4.243.255.226.243.555.228.704a2.788 2.788 0 0 1-.144.591c-.135.4-.353.886-.552 1.336-.206.467-.392.895-.494 1.223a2.51 2.51 0 0 0-.04.148c.711.116 1.405-.274 2.104-.855.188-.157.367-.32.54-.479.17-.155.341-.314.497-.448a3.03 3.03 0 0 1 .483-.352.956.956 0 0 1 .58-.133l.104.02.68.192c.674.185 1.337.34 2.018.34 2.256 0 4.266-.65 5.7-1.785C16.126 10.606 17 8.99 17 6.988zm1 0c0 2.325-1.029 4.224-2.68 5.53-1.641 1.298-3.882 2-6.32 2-1.047 0-2.049-.31-2.892-.547l-.007.004a2.03 2.03 0 0 0-.315.236c-.14.12-.292.26-.47.425-.176.16-.37.337-.579.51-.802.668-1.979 1.436-3.338.966a.512.512 0 0 1-.074-.032c-.33-.178-.366-.526-.362-.696a2.24 2.24 0 0 1 .116-.596c.123-.393.335-.877.534-1.329.207-.468.402-.907.52-1.254.05-.146.074-.255.087-.33C.844 10.603 0 8.819 0 6.988 0 2.87 4.17 0 9 0c2.415 0 4.65.555 6.298 1.713C16.964 2.884 18 4.656 18 6.988z" />
        <path fill="currentColor"
            d="M6.685 7.94a.556.556 0 1 1-1.11 0 .556.556 0 0 1 1.11 0zm3.334 0a.556.556 0 1 1-1.111 0 .556.556 0 0 1 1.11 0zm3.333 0a.556.556 0 1 1-1.111 0 .556.556 0 0 1 1.111 0z" />
    </symbol>
    <symbol id="sub-menu-02" viewBox="0 0 19 17">
        <path fill="currentColor"
            d="M16.573 15.287a1.286 1.286 0 1 1-2.571 0 1.286 1.286 0 0 1 2.571 0zm-8.357 0a1.286 1.286 0 1 1-2.572 0 1.286 1.286 0 0 1 2.572 0z" />
        <path fill="currentColor" d="M8.216 15.287a1.286 1.286 0 1 1-2.572 0 1.286 1.286 0 0 1 2.572 0z" />
        <path fill="currentColor"
            d="M7.716 15.287a.786.786 0 1 0-.785.785v.5a1.286 1.286 0 0 1-1.28-1.154l-.006-.13a1.286 1.286 0 0 1 2.57 0l-.006.13a1.285 1.285 0 0 1-1.278 1.155v-.5a.785.785 0 0 0 .785-.786zm7.857 0a.286.286 0 1 0-.286.285v1a1.285 1.285 0 0 1-1.278-1.154l-.007-.13a1.286 1.286 0 1 1 2.571 0l-.007.13a1.286 1.286 0 0 1-1.279 1.155v-1a.286.286 0 0 0 .286-.286zM1.24 0c.391 0 .732-.001 1.007.033.289.036.567.117.809.321.241.205.366.466.45.745.069.23.119.515.174.84l12.34-.007c.557 0 1.03-.002 1.397.05.381.055.747.18 1.01.506.265.327.31.71.283 1.095-.026.37-.127.832-.245 1.377l-.595 2.75c-.079.366-.147.684-.234.936-.092.265-.223.512-.46.704-.238.191-.506.266-.784.3-.265.033-.591.032-.965.032H4.983l.108.638c.069.411.114.675.172.867.053.178.1.234.138.266.038.032.102.07.287.093.2.025.466.026.882.026h9.984a.5.5 0 1 1 0 1H6.57c-.39 0-.73 0-1.006-.034-.288-.036-.566-.117-.808-.321-.242-.205-.368-.465-.451-.744-.08-.266-.136-.6-.2-.987L2.72 2.251c-.07-.41-.115-.673-.172-.865-.054-.179-.101-.236-.139-.268-.038-.032-.101-.07-.286-.093C1.924 1.001 1.657 1 1.24 1H.5a.5.5 0 0 1 0-1h.74zm2.61 2.938l.965 5.744h10.612c.399 0 .653 0 .843-.024.178-.021.24-.057.278-.087.037-.03.085-.084.143-.253.063-.18.117-.43.202-.819l.594-2.75c.125-.576.205-.954.225-1.236.019-.269-.026-.352-.063-.397-.036-.045-.108-.106-.374-.144-.28-.04-.666-.04-1.255-.04l-12.17.006z" />
    </symbol>
    <symbol id="main-menu-02" viewBox="0 0 18 18">
        <path fill="currentColor"
            d="M9 5.348a3.652 3.652 0 1 0 0 7.303 3.652 3.652 0 0 0 0-7.303zM6.472 9a2.527 2.527 0 1 1 5.053 0 2.527 2.527 0 0 1-5.053 0z" />
        <path fill="currentColor"
            d="M11.02 1.51c-.593-2.013-3.448-2.013-4.041 0l-.106.36a.982.982 0 0 1-1.412.584l-.328-.18C3.288 1.271 1.27 3.29 2.275 5.133l.18.328a.982.982 0 0 1-.586 1.412l-.359.106c-2.013.593-2.013 3.448 0 4.041l.36.106a.982.982 0 0 1 .584 1.412l-.18.328c-1.003 1.845 1.014 3.864 2.859 2.858l.328-.18a.983.983 0 0 1 1.412.586l.106.359c.593 2.014 3.448 2.014 4.041 0l.106-.36a.982.982 0 0 1 1.412-.584l.328.18c1.845 1.005 3.864-1.015 2.858-2.859l-.18-.328a.983.983 0 0 1 .586-1.412l.359-.106c2.014-.593 2.014-3.448 0-4.041l-.36-.106a.982.982 0 0 1-.584-1.412l.18-.328c1.005-1.845-1.015-3.862-2.859-2.858l-.328.18a.982.982 0 0 1-1.412-.586l-.106-.359zm-2.962.319c.277-.94 1.606-.94 1.883 0l.106.359a2.107 2.107 0 0 0 3.03 1.254l.327-.18c.86-.467 1.8.472 1.332 1.333l-.179.329a2.109 2.109 0 0 0 1.256 3.028l.357.106c.94.277.94 1.606 0 1.883l-.359.106a2.106 2.106 0 0 0-1.254 3.03l.18.327c.467.86-.472 1.8-1.333 1.332l-.327-.179a2.107 2.107 0 0 0-3.03 1.256l-.106.357c-.277.94-1.606.94-1.883 0l-.106-.359a2.107 2.107 0 0 0-3.028-1.254l-.329.18c-.86.467-1.8-.472-1.332-1.333l.179-.327a2.107 2.107 0 0 0-1.254-3.031l-.36-.106c-.939-.277-.939-1.606 0-1.883l.36-.106a2.107 2.107 0 0 0 1.254-3.027l-.18-.329c-.467-.86.472-1.8 1.333-1.332l.329.179a2.107 2.107 0 0 0 3.028-1.254l.106-.36z" />
    </symbol>
    <symbol id="sub-menu-03" viewBox="0 0 20 20">
        <path fill="currentColor"
            d="M6.744 9.008c-.546-.546-1.064-1.064-1.587-1.577-.037-.037-.139-.028-.204-.01-1.097.32-2.129.186-3.1-.416C.338 6.071-.3 4.128.361 2.477c.115-.296.328-.342.56-.116C1.468 2.903 2.014 3.448 2.56 4c.047.046.074.102.107.143.504-.504.981-.98 1.467-1.47-.57-.565-1.148-1.139-1.727-1.717-.282-.282-.24-.472.135-.615 2.245-.846 4.725.643 5.026 3.025.07.537.023 1.069-.139 1.587-.018.064 0 .18.042.226.796.81 1.602 1.61 2.402 2.41.014.014.033.023.056.042.05-.046.102-.093.148-.139 1.453-1.452 2.907-2.9 4.355-4.357a.865.865 0 0 0 .181-.282c.12-.306.222-.625.347-.93a.592.592 0 0 1 .208-.254c.685-.403 1.38-.796 2.065-1.194.176-.102.32-.083.463.06.319.329.648.653.972.972.143.143.162.291.06.462-.394.685-.782 1.37-1.185 2.05-.056.092-.176.152-.264.226a.05.05 0 0 1-.032.014c-.769.176-1.343.629-1.88 1.189-1.19 1.24-2.425 2.442-3.647 3.658-.05.051-.106.093-.171.148.06.065.106.116.153.162.754.754 1.508 1.504 2.254 2.262.102.102.18.134.328.088 2.153-.67 4.44.777 4.772 3.007a3.778 3.778 0 0 1-.208 1.933c-.12.31-.333.352-.57.116-.587-.583-1.17-1.17-1.749-1.749-.481.486-.958.963-1.476 1.485.037.023.106.047.152.097a265.62 265.62 0 0 1 1.611 1.61c.255.254.209.463-.125.588-2.254.86-4.73-.616-5.05-3.012a3.547 3.547 0 0 1 .14-1.586c.041-.12.018-.19-.07-.282-.463-.454-.921-.916-1.384-1.379-.037-.037-.083-.074-.139-.13-.06.445-.3.76-.597 1.055-1.583 1.573-3.157 3.155-4.735 4.732-.722.722-1.597.722-2.324 0-.541-.541-1.083-1.078-1.624-1.623-.676-.68-.671-1.578 0-2.258 1.615-1.614 3.23-3.224 4.841-4.843.269-.268.574-.458.99-.522l.005.004zm11.618 7.142c.028-.018.056-.041.083-.06.024-.176.065-.351.075-.527a3.169 3.169 0 0 0-4.268-3.178c-.218.079-.366.05-.528-.116-2.272-2.28-4.55-4.556-6.827-6.827-.143-.143-.176-.282-.102-.476.468-1.263.153-2.586-.847-3.483C5.13.752 4.162.539 3.065.77c.06.07.102.116.143.157.495.495.99.99 1.486 1.49.204.203.204.347 0 .55-.574.574-1.143 1.147-1.717 1.716-.213.209-.343.213-.551 0-.495-.495-.99-.99-1.49-1.484a1.906 1.906 0 0 0-.144-.13c-.023.005-.042.014-.065.019C.713 3.444.663 3.8.7 4.15a3.156 3.156 0 0 0 4.249 2.646c.217-.078.365-.046.527.116 2.264 2.271 4.536 4.533 6.809 6.795.166.166.194.314.115.541-.425 1.235-.199 2.36.709 3.298.824.856 1.851 1.106 3.04.823-.036-.064-.11-.083-.161-.13-.5-.49-.995-.989-1.49-1.484-.19-.19-.19-.333 0-.523l1.744-1.743c.2-.2.334-.2.532 0 .491.49.986.98 1.472 1.475.047.046.07.12.107.18l.01.005zM3.717 18.204a.919.919 0 0 0 .64-.278c1.66-1.66 3.327-3.32 4.989-4.986.38-.38.384-.939.009-1.318a129.866 129.866 0 0 0-1.787-1.786.906.906 0 0 0-1.291 0c-1.676 1.67-3.346 3.34-5.017 5.014a.9.9 0 0 0-.01 1.29c.593.607 1.195 1.203 1.796 1.8.18.18.403.26.667.264h.004zM17.367 1.07c-.333.19-.68.388-1.028.592-.282.162-.624.273-.819.509-.194.231-.236.596-.365.892a1.47 1.47 0 0 1-.287.458c-1.454 1.467-2.921 2.924-4.379 4.385l-.125.13.82.819c.032-.037.069-.088.11-.134 1.329-1.333 2.671-2.65 3.986-3.997.398-.407.819-.735 1.379-.865.291-.07.477-.231.615-.504.241-.477.528-.93.792-1.392.028-.047.05-.098.07-.13-.26-.259-.51-.504-.764-.759l-.005-.004z" />
        <path fill="currentColor"
            d="M2.505.246c2.306-.87 4.853.66 5.162 3.106l.02.206c.037.481-.017.958-.163 1.423a.2.2 0 0 0 .001.073c.003.016.006.03.01.041.005.012.01.016.01.016h-.001c.787.8 1.584 1.592 2.378 2.385.028-.027.057-.05.082-.076 1.454-1.453 2.908-2.9 4.356-4.357l.048-.055a.832.832 0 0 0 .111-.195c.06-.15.114-.305.17-.46.056-.157.114-.315.177-.47a.691.691 0 0 1 .248-.3l.003-.002c.685-.403 1.381-.797 2.064-1.194l.075-.038a.44.44 0 0 1 .232-.036c.078.01.149.043.214.094l.063.057c.319.327.647.651.971.97a.485.485 0 0 1 .151.28.475.475 0 0 1-.075.305l-.588 1.025-.596 1.024a.546.546 0 0 1-.146.15c-.056.042-.098.067-.14.102l-.002-.002a.146.146 0 0 1-.074.035l.001.002c-.74.17-1.298.606-1.829 1.16-1.19 1.241-2.428 2.446-3.648 3.661h-.001c-.03.03-.065.056-.098.083.03.032.054.06.08.085.754.754 1.509 1.503 2.254 2.262a.262.262 0 0 0 .104.074c.026.008.061.01.125-.01 2.21-.69 4.558.797 4.9 3.087a3.881 3.881 0 0 1-.13 1.74l-.084.244c-.065.167-.167.294-.314.324a.404.404 0 0 1-.32-.089l-.1-.085c-.563-.559-1.123-1.123-1.678-1.677l-1.313 1.319c.02.013.04.03.059.05.537.532 1.074 1.069 1.611 1.61l.09.103c.079.105.12.217.096.33-.024.114-.109.2-.223.262l-.123.057c-2.314.883-4.857-.632-5.184-3.092a3.65 3.65 0 0 1 .143-1.63v-.003c.017-.049.017-.074.012-.092a.21.21 0 0 0-.057-.085l-1.384-1.38c-.002-.001-.005-.002-.006-.004-.099.382-.327.668-.588.93H9.66c-1.583 1.572-3.156 3.154-4.735 4.732-.375.375-.798.57-1.23.57-.378 0-.75-.15-1.09-.438l-.144-.132-1.625-1.624C.482 16.34.3 15.922.3 15.497c.001-.424.183-.843.535-1.198l4.841-4.843c.24-.24.51-.422.86-.513-.495-.495-.969-.968-1.447-1.437h-.026a.332.332 0 0 0-.084.011c-1.123.327-2.185.19-3.182-.427C.243 6.13-.412 4.136.268 2.44c.062-.162.164-.285.309-.315.144-.03.288.042.414.165l1.638 1.637c.02.02.034.041.047.06.45-.45.879-.878 1.314-1.316-.546-.542-1.1-1.091-1.654-1.645C2.193.883 2.096.73 2.13.574c.034-.155.185-.255.375-.327V.246zm4.962 3.132C7.184 1.132 4.91-.3 2.781.363l-.205.07c-.185.071-.241.138-.251.184-.01.045.013.128.152.267A596.01 596.01 0 0 0 4.203 2.6l.071.07-.07.072c-.486.49-.964.966-1.468 1.47l-.08.08-.07-.088c-.018-.025-.038-.056-.051-.076l-.047-.059L.85 2.432C.745 2.33.667 2.311.618 2.321c-.049.01-.112.058-.164.192l-.001.001C-.191 4.12.43 6.011 1.903 6.92c.947.586 1.951.716 3.021.405a.509.509 0 0 1 .14-.02c.025 0 .052.002.078.01a.173.173 0 0 1 .083.044c.524.514 1.043 1.032 1.59 1.578l-.072.071-.003.002.014.092c-.391.061-.678.238-.935.494-1.61 1.62-3.226 3.23-4.84 4.843-.32.324-.477.694-.477 1.059-.001.364.153.734.475 1.057.541.546 1.082 1.082 1.624 1.623.35.347.726.513 1.094.513.367 0 .742-.165 1.089-.512 1.578-1.577 3.152-3.16 4.735-4.732l.203-.22c.188-.226.324-.469.366-.777l.027-.2.142.142c.026.026.05.048.073.069.022.02.045.04.066.061L11.78 13.9l.002.002c.048.05.09.107.107.175a.353.353 0 0 1-.015.209 3.447 3.447 0 0 0-.135 1.54l.035.217c.426 2.203 2.755 3.526 4.88 2.715.159-.06.21-.126.22-.173.01-.048-.01-.13-.13-.25v-.001a305.173 305.173 0 0 0-1.61-1.609l-.004-.004a.206.206 0 0 0-.053-.038l-.037-.02a.48.48 0 0 1-.041-.022l-.107-.066.088-.089c.52-.524.994-.998 1.477-1.484l.07-.072.071.072c.58.578 1.163 1.165 1.75 1.748l.076.066c.071.051.125.061.162.054.048-.01.112-.059.168-.201a3.679 3.679 0 0 0 .202-1.883c-.325-2.17-2.55-3.578-4.643-2.926a.406.406 0 0 1-.24.013.455.455 0 0 1-.19-.125v-.001c-.744-.758-1.499-1.507-2.253-2.261-.049-.048-.097-.101-.156-.165l-.071-.076.079-.068c.071-.06.119-.096.166-.143 1.223-1.218 2.457-2.419 3.646-3.657.542-.566 1.133-1.035 1.93-1.217v-.001c.045-.036.101-.074.138-.102a.353.353 0 0 0 .094-.092c.402-.679.79-1.362 1.183-2.047l.001-.001a.29.29 0 0 0 .05-.178.286.286 0 0 0-.094-.162l-.972-.972-.086-.068a.208.208 0 0 0-.076-.026c-.047-.006-.104.006-.18.05-.687.398-1.38.79-2.065 1.193a.496.496 0 0 0-.167.205c-.061.15-.116.305-.172.462-.056.155-.113.313-.173.467l-.001.001a.967.967 0 0 1-.202.316c-1.45 1.457-2.903 2.904-4.356 4.356a4.47 4.47 0 0 1-.151.143l-.064.057-.066-.053a.408.408 0 0 0-.026-.019c-.009-.006-.024-.016-.038-.03-.8-.8-1.606-1.601-2.403-2.411l-.003-.003a.323.323 0 0 1-.067-.156.386.386 0 0 1 .004-.166v-.001a3.58 3.58 0 0 0 .156-1.35l-.02-.194zM3.043.673c1.124-.238 2.126-.02 2.971.735 1.03.925 1.355 2.291.873 3.592a.349.349 0 0 0-.026.2.35.35 0 0 0 .105.17l6.828 6.829c.073.074.134.11.193.122.06.013.13.005.23-.03l.208-.07a3.266 3.266 0 0 1 4.199 3.126l-.006.221a2.518 2.518 0 0 1-.033.274c-.015.09-.03.175-.041.261l-.006.045-.038.024-.038.028-.045.033-.05.032-.051-.026-.009-.004-.026-.013-.015-.024c-.021-.035-.04-.077-.053-.103a.238.238 0 0 0-.039-.06c-.486-.495-.98-.984-1.471-1.475-.095-.095-.154-.12-.196-.12-.041 0-.1.025-.196.12l-.872.872-.872.871c-.089.09-.113.149-.113.192 0 .043.024.102.113.19.495.495.988.993 1.486 1.482l.073.046a.313.313 0 0 1 .109.107l.066.116-.13.031c-1.22.29-2.284.033-3.135-.851-.935-.967-1.17-2.131-.732-3.4a.45.45 0 0 0 .032-.24.4.4 0 0 0-.123-.198c-2.273-2.262-4.546-4.524-6.81-6.795a.4.4 0 0 0-.192-.121.41.41 0 0 0-.23.028A3.254 3.254 0 0 1 .626 4.36l-.027-.198C.561 3.8.612 3.426.626 3.084l.004-.08.077-.015.02-.006c.01-.003.026-.009.044-.013l.047-.008.036.029c.053.043.102.088.15.137l1.492 1.484c.1.104.16.13.202.129.043 0 .103-.028.207-.129.574-.569 1.142-1.142 1.717-1.716.097-.097.124-.159.124-.204 0-.034-.015-.078-.064-.139l-.06-.066c-.495-.5-.99-.994-1.486-1.49a3.032 3.032 0 0 1-.148-.161l-.111-.13.166-.033zm2.837.884C5.131.89 4.255.667 3.258.835l.02.021c.495.495.99.99 1.484 1.49h.001c.107.106.182.218.182.346 0 .128-.075.24-.182.346L3.046 4.755c-.11.106-.22.185-.347.186-.128 0-.238-.078-.345-.187L.864 3.269c-.015-.015-.032-.028-.047-.042-.019.318-.051.614-.02.913a3.056 3.056 0 0 0 4.116 2.563.607.607 0 0 1 .34-.036c.11.024.203.085.293.174v.001c2.263 2.271 4.535 4.532 6.808 6.794l.064.07a.533.533 0 0 1 .113.23.646.646 0 0 1-.037.346c-.414 1.2-.195 2.285.685 3.195l.152.149c.72.662 1.59.877 2.59.69l-.002-.002-.002-.002c-.5-.49-.997-.99-1.492-1.485-.1-.1-.171-.209-.171-.332 0-.124.07-.232.171-.332l.872-.872.873-.872c.104-.104.212-.18.337-.18.125.001.234.076.337.18.49.49.985.98 1.471 1.475h.001a.34.34 0 0 1 .048.063l.023-.147c.015-.087.027-.17.032-.253a3.068 3.068 0 0 0-3.937-3.143l-.197.064a.615.615 0 0 1-.34.038.578.578 0 0 1-.293-.177c-2.272-2.28-4.55-4.556-6.827-6.827a.546.546 0 0 1-.16-.268.544.544 0 0 1 .035-.314c.453-1.225.15-2.504-.82-3.374v.001zm.326 8.207a1.006 1.006 0 0 1 1.431 0c.602.593 1.2 1.185 1.788 1.787.388.393.407.964.064 1.378l-.074.081c-1.662 1.666-3.328 3.326-4.99 4.987-.195.2-.441.296-.705.306h-.01c-.285-.005-.534-.09-.736-.293-.601-.596-1.204-1.193-1.797-1.8a1 1 0 0 1 .01-1.431c1.671-1.675 3.342-3.344 5.018-5.014zm1.29.143A.804.804 0 0 0 6.41 9.85l-.063.057A2547.58 2547.58 0 0 0 1.33 14.92a.8.8 0 0 0-.008 1.15c.592.605 1.192 1.201 1.794 1.798.16.159.355.229.598.233a.817.817 0 0 0 .57-.246c1.663-1.662 3.33-3.322 4.991-4.987.34-.341.344-.838.009-1.177h-.001a130.612 130.612 0 0 0-1.785-1.785zm9.945-8.902l.38.376.384.382.053.054-.038.066-.028.056c-.012.023-.026.05-.042.075-.267.468-.55.914-.788 1.387-.132.259-.307.432-.565.522l-.117.034c-.532.123-.938.436-1.33.838-1.316 1.346-2.659 2.666-3.986 3.997-.018.02-.035.04-.052.062l-.055.068-.07.08-.076-.076-.053-.052-.003-.004-.002-.001v-.002l-.005-.003-.002-.004-.007-.006-.002-.002-.001-.002h-.002l-.002-.003-.001-.002h-.002l-.002-.003-.001-.002-.004-.002-.003-.004-.012-.013-.004-.003c-.003-.002-.001-.002-.003-.004h-.002l-.001-.003-.004-.003-.003-.004-.01-.01h-.002v-.002l-.005-.003-.006-.007-.002-.001-.004-.005-.003-.004h-.002l-.002-.003-.051-.052-.002-.002h-.002v-.002l-.003-.002-.007-.006v-.002l-.003-.001-.002-.002v-.002l-.002-.001-.002-.002-.002-.002-.001-.001c-.004-.003 0 0-.003-.004l-.003-.003-.007-.006-.002-.002-.001-.002h-.002l-.005-.005v-.002l-.015-.015c-.005-.005-.003-.001-.007-.006l-.001-.002h-.002l-.002-.003-.001-.002-.007-.006-.006-.006-.014-.013v-.002l-.002-.001-.003-.003c-.003-.002 0-.001-.003-.004-.002-.002-.002 0-.004-.003l-.006-.007-.007-.006-.006-.006-.003-.003-.004-.003v-.002l-.003-.001-.001-.002-.002-.002-.002-.001v-.002l-.004-.003-.013-.013-.006-.006c-.002-.003-.002-.001-.004-.003l-.003-.003v-.002l-.003-.001-.002-.002v-.002l-.003-.001-.004-.005-.006-.007-.007-.006-.005-.005-.001-.002-.004-.002-.016-.016-.005-.007-.003-.003c-.002-.002-.002 0-.004-.003a.08.08 0 0 1-.003-.003l-.003-.004-.003-.003h-.002l-.033-.034-.003-.004c-.002-.002-.002 0-.004-.003l-.001-.001-.002-.001-.003-.003c-.004-.005.002 0-.003-.004l-.004-.003-.024-.026-.013-.012-.007-.006-.003-.003-.002-.004-.026-.025c-.005-.006-.001 0-.007-.006-.003-.004-.002-.004-.006-.007l-.001-.001-.005-.005-.001-.002h-.002l-.03-.031-.002-.002-.004-.003v-.002l-.002-.001-.005-.005-.001-.002h-.002l-.01-.01-.001-.003h-.002l-.008-.008c-.006-.007.004.002-.003-.004l-.002-.001-.008-.008-.002-.004-.004-.003-.008-.008-.001-.002h-.002l-.078-.079-.006-.007-.014-.012-.083-.083.07-.072.056-.057.07-.071c1.458-1.463 2.925-2.919 4.379-4.385l.079-.092c.074-.099.135-.217.186-.335.062-.143.102-.297.155-.462a1.65 1.65 0 0 1 .152-.351l.074-.105c.11-.133.258-.227.406-.306.075-.04.152-.077.226-.114l.215-.111a91.16 91.16 0 0 1 1.027-.592l.066-.038.059.059zm-1.053.744c-.073.043-.15.081-.225.118-.076.037-.15.073-.22.11a1.124 1.124 0 0 0-.347.258v.001a1.14 1.14 0 0 0-.19.389c-.047.149-.094.325-.161.48a1.885 1.885 0 0 1-.211.376l-.097.111c-1.453 1.467-2.921 2.925-4.379 4.386a3.067 3.067 0 0 0-.055.057l.028.028v.002l.005.003.02.02.001.002.004.003.02.02.002.003h.002l.004.006.001.002h.002l.023.023v.002l.003.001.012.013c.005.004.002.002.006.007h.002l.002.003.001.001.002.001.003.003.003.004.007.006.005.005v.002l.013.013c.006.005-.001-.003.004.003l.496.496.044-.053.004-.004c1.33-1.333 2.67-2.65 3.985-3.995l.153-.151c.362-.344.76-.623 1.274-.742l.093-.026c.207-.072.346-.207.457-.426l.19-.355c.196-.353.409-.699.604-1.041l.001-.002c.011-.019.02-.04.031-.06l-.33-.328-.332-.329a89.41 89.41 0 0 0-.96.554z" />
        <path fill="currentColor"
            d="M6.297 11.307c.278-.005.426.217.324.411a.649.649 0 0 1-.144.176l-3.18 3.178c-.041.042-.078.083-.13.116-.129.078-.258.069-.365-.042-.106-.111-.115-.236-.027-.366a.582.582 0 0 1 .101-.11l3.208-3.206c.074-.074.167-.125.213-.157z" />
        <path fill="currentColor"
            d="M6.293 11.207a.461.461 0 0 1 .387.171c.081.11.095.253.027.384h.001a.738.738 0 0 1-.163.202l-3.179 3.179c-.036.036-.084.089-.146.129l-.002.002a.408.408 0 0 1-.254.063.379.379 0 0 1-.236-.122.384.384 0 0 1-.114-.237.396.396 0 0 1 .075-.253l.058-.072a.874.874 0 0 1 .062-.06l1.598-1.597 1.605-1.602c.082-.082.191-.146.225-.17l.026-.017h.03zm.028.201c-.053.035-.114.072-.169.127l-3.212 3.21a.488.488 0 0 0-.085.091.201.201 0 0 0-.042.127.186.186 0 0 0 .06.114.183.183 0 0 0 .111.062.212.212 0 0 0 .13-.037c.038-.025.065-.055.11-.1l3.18-3.179.004-.003a.552.552 0 0 0 .121-.146l.001-.002a.158.158 0 0 0-.011-.174c-.035-.046-.1-.085-.198-.09zM4.32 16.473c-.287 0-.426-.24-.31-.435.032-.056.078-.097.125-.143 1.06-1.064 2.124-2.123 3.189-3.187.041-.042.078-.084.13-.116.129-.083.258-.07.365.037.106.106.116.236.032.365-.028.047-.074.088-.115.13a2077.933 2077.933 0 0 1-3.19 3.182c-.078.079-.175.13-.226.167z" />
        <path fill="currentColor"
            d="M7.653 12.44c.09.01.169.053.235.12a.378.378 0 0 1 .116.236.406.406 0 0 1-.07.254l-.001-.001c-.036.058-.094.112-.128.146a2034.128 2034.128 0 0 1-3.19 3.183.924.924 0 0 1-.138.111c-.049.033-.075.048-.1.066l-.026.019h-.034a.454.454 0 0 1-.388-.19.367.367 0 0 1-.007-.396c.04-.07.099-.122.14-.163 1.06-1.064 2.125-2.124 3.189-3.188.036-.036.084-.088.146-.128l.061-.034a.376.376 0 0 1 .195-.035zm-.02.2a.199.199 0 0 0-.128.037c-.039.025-.066.055-.112.102-1.065 1.064-2.13 2.123-3.19 3.187l-.064.066-.045.058a.168.168 0 0 0 0 .183c.033.049.098.091.197.098l.074-.048a.725.725 0 0 0 .109-.087c1.064-1.059 2.125-2.119 3.19-3.183.047-.047.08-.077.1-.109l.002-.003a.207.207 0 0 0 .039-.129.18.18 0 0 0-.059-.111.19.19 0 0 0-.113-.062z" />
    </symbol>
    <symbol id="main-menu-03" viewBox="0 0 14 17">
        <path fill="currentColor"
            d="M13 2.5c0-.485-.001-.799-.032-1.03-.03-.217-.076-.285-.114-.324-.038-.038-.107-.085-.324-.114C12.3 1.002 11.985 1 11.5 1h-9c-.485 0-.799.001-1.03.032-.217.03-.285.076-.324.114-.038.039-.085.107-.114.324C1.002 1.7 1 2.015 1 2.5v12c0 .485.001.8.032 1.03.03.217.076.286.114.324.039.038.107.085.324.114.23.03.545.032 1.03.032h9c.485 0 .8-.001 1.03-.032.217-.03.286-.076.324-.114.038-.038.085-.107.114-.324.03-.23.032-.545.032-1.03v-12zm1 12c0 .457.001.85-.041 1.164-.044.328-.144.642-.399.897-.254.254-.568.354-.896.398-.313.042-.707.041-1.164.041h-9c-.457 0-.85.001-1.164-.041-.328-.044-.642-.144-.897-.398-.254-.255-.354-.57-.398-.897C-.001 15.351 0 14.957 0 14.5v-12c0-.457-.001-.85.041-1.164.044-.328.144-.642.398-.897.255-.254.57-.354.897-.398C1.649-.001 2.043 0 2.5 0h9c.457 0 .85-.001 1.164.041.328.044.642.144.896.398.255.255.355.57.399.897.042.313.041.707.041 1.164v12z" />
        <path fill="currentColor"
            d="M8.442 11.077a.5.5 0 0 1 0 1H4.11a.5.5 0 0 1 0-1h4.333zm1.445-3.692a.5.5 0 1 1 0 1H4.109a.5.5 0 0 1 0-1h5.778zm0-3.693a.5.5 0 1 1 0 1H4.109a.5.5 0 1 1 0-1h5.778z" />
    </symbol>
</svg>