<svg xmlns="http://www.w3.org/2000/svg" id="Layer_2" width="78.42" height="11.65" viewBox="0 0 78.42 11.65"><defs><style>.cls-1{fill:#585856}</style></defs><g id="Layer_1-2"><path d="M6.67 2.36c1.5 0 2.79.62 3.49 1.19l1.5-1.99C10.37.56 8.57-.01 6.63-.01 2.75 0 0 2.5 0 5.82s2.75 5.83 6.63 5.83c2.03 0 3.85-.59 5.15-1.66l-1.57-1.93-.08.06c-.71.56-1.99 1.16-3.47 1.16-2.39 0-4.18-1.38-4.18-3.46s1.79-3.46 4.18-3.46m25.71 0c1.5 0 2.79.62 3.5 1.19l1.5-1.99c-1.29-1-3.09-1.57-5.03-1.57-3.88 0-6.63 2.5-6.63 5.82s2.75 5.83 6.63 5.83c2.03 0 3.85-.59 5.15-1.66l-1.57-1.93-.08.06c-.71.56-1.99 1.16-3.47 1.16-2.39 0-4.17-1.38-4.17-3.46s1.79-3.46 4.17-3.46M56.53 0c-3.87 0-6.78 2.5-6.78 5.82s2.91 5.83 6.78 5.83 6.78-2.5 6.78-5.83S60.4 0 56.53 0m0 9.29c-2.47 0-4.19-1.42-4.19-3.46s1.72-3.46 4.19-3.46 4.19 1.42 4.19 3.46S59 9.29 56.53 9.29M71.65 0c-3.86 0-6.78 2.5-6.78 5.82s2.92 5.83 6.78 5.83 6.78-2.5 6.78-5.83S75.52 0 71.65 0m0 9.29c-2.47 0-4.19-1.42-4.19-3.46s1.72-3.46 4.19-3.46 4.19 1.42 4.19 3.46-1.72 3.46-4.19 3.46" class="cls-1"/><path d="M50.48.23H47l-5.56 5.19V.23H39v11.13h2.44V6.11l5.71 5.26h3.52L44.5 5.69 50.48.23zm-28.7 6.63c0 .99-.57 2.4-3.18 2.4-3.02 0-3.05-1.99-3.05-2.4V.24H13.1v7.09c0 1.9 1.65 4.33 5.5 4.33s5.63-2.48 5.63-4.33V.24h-2.45v6.62z" class="cls-1"/></g></svg>