<svg width="80" height="80" viewBox="0 0 80 80" fill="none" xmlns="http://www.w3.org/2000/svg">
<g clip-path="url(#clip0_434_2820)">
<mask id="mask0_434_2820" style="mask-type:alpha" maskUnits="userSpaceOnUse" x="0" y="0" width="80" height="80">
<circle cx="40" cy="40" r="40" fill="white"/>
</mask>
<g mask="url(#mask0_434_2820)">
<circle cx="40.0156" cy="40" r="40" fill="#DADADA" fill-opacity="0.4"/>
<path d="M28.2425 13.0898L39.0073 9.96484L50.7973 13.0898L54.3856 27.6732L53.873 30.7982L54.3856 31.8398L55.4108 35.4857L54.3856 39.6523L52.3351 42.2565C51.925 44.3398 48.4051 49.0273 46.6964 51.1107V54.2357L48.2343 56.319L51.8225 57.8815L52.3351 58.9232L62.0747 62.569C62.9291 63.4371 64.7403 65.3815 65.1504 66.2148C65.5605 67.0482 66.0047 72.4648 66.1756 75.069L65.663 76.6315L41.5703 90.694L12.3516 79.7565L12.8642 69.8607C13.8894 65.694 15.4272 64.1315 16.9651 62.569C18.1953 61.319 23.9707 59.6176 26.7046 58.9232L27.7299 57.8815L31.3181 56.319L32.3433 52.6732C32.5142 52.1523 32.5484 50.9023 31.3181 50.069C30.0879 49.2357 27.7299 44.5135 26.7046 42.2565L25.1668 40.694L23.629 36.5273V32.8815L25.6794 31.8398L24.6542 29.2357L28.2425 13.0898Z" fill="white"/>
<path d="M66.3729 70.2796C66.1268 65.6025 63.6765 62.1338 59.3296 60.5608C57.0844 59.7483 54.8289 58.9671 52.5836 58.1754C52.5324 57.8317 52.3478 57.5088 52.03 57.3213L48.1649 55.1025L47.9497 55.2796C47.7754 54.9671 47.6318 54.6338 47.5191 54.2588C47.2833 53.4358 47.2833 52.5192 47.2935 51.6546C47.2935 51.2692 47.4986 50.7796 47.7754 50.5088C49.9796 48.3629 51.5994 45.8525 52.4811 42.8733C52.6657 42.2588 52.881 41.8004 53.5474 41.5504C53.9574 41.4046 54.3368 40.9983 54.5931 40.6129C56.0899 38.3942 56.582 35.9463 55.8746 33.3317C55.7311 32.7796 55.3312 32.1129 54.8699 31.8838C54.0907 31.5088 54.224 31.1442 54.4495 30.5296C54.6853 29.8942 55.0237 29.1754 54.9109 28.5713C54.101 24.0921 53.1783 19.6338 52.3171 15.165C51.948 13.2692 50.9023 12.0817 49.0364 11.6129C46.3401 10.9463 43.654 10.1963 40.9474 9.61293C40.0042 9.4046 38.9482 9.38376 38.005 9.58168C35.1549 10.1963 32.3458 10.9358 29.5265 11.665C27.8451 12.1025 26.8199 13.2171 26.4816 14.9671C25.7844 18.5192 25.1283 22.0817 24.4004 25.6233C24.0005 27.5817 23.3854 29.5088 24.7387 31.4567C23.3239 31.9046 22.8933 32.8838 22.678 34.04C22.2781 36.2067 22.7292 38.2379 23.816 40.0817C24.1953 40.7275 24.9232 41.1754 25.4666 41.7275C25.7229 41.9775 26.051 42.2379 26.1535 42.5504C27.0249 45.3421 28.3577 47.8733 30.4697 49.8733C31.3001 50.665 31.5974 51.4567 31.5461 52.5713C31.5051 53.5296 31.2898 54.3838 30.9002 55.1233L27.0864 57.3108C26.8096 57.4671 26.6251 57.7379 26.5533 58.0296C24.2261 58.8629 21.8886 59.6963 19.5613 60.5088C15.9013 61.8004 13.5023 64.3213 12.6923 68.1754C12.3233 69.9358 12.354 71.7796 12.2412 73.5921C11.9337 78.6546 11.6364 83.7171 11.3493 88.7796C11.2775 90.1233 11.3186 90.1442 12.6206 90.1442C30.2544 90.1442 47.8984 90.1442 65.5322 90.1442C67.5826 90.1442 67.5724 90.4254 67.4288 88.0088C67.0905 82.0921 66.7009 76.1754 66.3831 70.2588L66.3729 70.2796ZM48.2572 56.3525L51.5277 58.2275C51.5892 58.2588 51.6097 58.3317 51.5994 58.3629L45.9402 68.4046C45.6942 68.6129 45.3558 68.8108 45.0688 68.7483C44.7612 68.6754 44.5357 68.3213 44.4742 68.1858L40.4245 62.7067C40.4655 62.6338 40.5681 62.54 40.6603 62.4567L48.2572 56.3421V56.3525ZM40.0452 61.6338C39.8709 61.7588 39.7171 61.9254 39.5941 62.1025C39.4403 61.9254 39.2558 61.7692 39.0713 61.6546L31.9255 55.9046C32.5611 54.8004 32.8687 53.4879 32.7969 51.9567C37.2054 54.5713 41.5215 54.5817 45.9505 51.9567C45.889 53.5504 46.217 54.9254 46.9347 56.0817L40.035 61.6338H40.0452ZM27.1479 18.1858C27.3325 17.2171 27.5375 16.2588 27.7118 15.29C27.9374 14.0713 28.614 13.2483 29.8033 12.9463C32.6739 12.2171 35.5445 11.4775 38.4356 10.8317C39.143 10.6754 39.9632 10.7275 40.6808 10.8942C43.3874 11.5192 46.0735 12.2379 48.7698 12.9046C50.0206 13.2171 50.7793 13.9983 51.0356 15.2796C51.784 19.1233 52.5324 22.9567 53.2705 26.8004C53.3116 26.9983 53.3116 27.2171 53.3321 27.4567C43.9821 22.7275 34.6936 22.7379 25.3436 27.4879C25.9484 24.3525 26.5533 21.2692 27.1479 18.1963V18.1858ZM53.5063 29.2171C53.086 30.3942 52.7272 31.6442 52.2043 32.8004C51.8967 33.4775 51.2304 33.3004 50.6152 33.0713C48.6878 32.3525 46.7809 31.5088 44.792 31.0192C39.2865 29.6858 33.9452 30.3629 28.7985 32.7379C26.9326 33.6025 26.7174 33.5296 26.051 31.5817C25.7741 30.79 25.5178 29.9879 25.2615 29.2067C33.6888 24.0192 44.874 23.9358 53.5166 29.2067L53.5063 29.2171ZM29.9878 47.3004C28.655 45.5296 27.7426 43.5296 27.2505 41.3525C27.1274 40.79 26.9224 40.4463 26.2663 40.4567C25.9792 40.4567 25.5896 40.2588 25.4051 40.0192C23.939 38.1338 23.6007 35.9983 24.1338 33.6963C24.1953 33.4046 24.5336 33.1858 24.7489 32.9358C24.954 33.1338 25.2103 33.3108 25.3641 33.54C26.051 34.5817 27.3222 34.9358 28.5627 34.3317C30.7157 33.2692 32.9507 32.4879 35.3189 32.0921C40.2092 31.2796 44.9047 31.8733 49.426 33.9671C50.1949 34.3213 50.9741 34.9358 51.866 34.5296C52.4504 34.2588 52.9425 33.7692 53.4653 33.3629C53.6294 33.2379 53.8037 32.9254 53.9267 32.9567C54.142 33.0088 54.4495 33.2171 54.4803 33.4046C54.6546 34.2796 54.9416 35.2067 54.8186 36.0504C54.6546 37.2067 54.2035 38.3317 53.7626 39.4254C53.5166 40.04 53.0655 40.5088 52.2556 40.5088C52.0198 40.5088 51.6609 40.9879 51.5789 41.3108C50.6767 44.915 48.8518 47.915 45.9812 50.2379C44.1256 51.7379 41.9111 52.5088 39.4198 52.5192C35.3292 52.54 32.3766 50.4463 29.9981 47.29L29.9878 47.3004ZM27.5785 58.2275L30.849 56.3525L31.2693 56.6963C31.2693 56.6963 31.3206 56.7379 31.3411 56.7692L38.4766 62.5088C38.6099 62.5921 38.7534 62.7171 38.8252 62.8108L34.6833 68.0817L34.6115 68.1963C34.5705 68.3004 34.345 68.6754 34.0169 68.7588C33.7196 68.8317 33.3915 68.6233 33.1352 68.415L27.4965 58.4046C27.4658 58.3421 27.4965 58.2692 27.5478 58.2379L27.5785 58.2275ZM12.6411 88.8317C12.7436 86.9463 12.8359 85.0817 12.9384 83.2275C13.1742 79.0713 13.4818 74.915 13.6561 70.7483C13.8406 66.2067 15.973 63.1546 20.197 61.6754C22.4217 60.8942 24.6464 60.1025 26.8814 59.3421L32.3253 68.9983L32.4381 69.1338C32.9404 69.5713 33.4428 69.79 33.9246 69.79C34.0477 69.79 34.1604 69.7796 34.2732 69.7483C35.0319 69.5713 35.4317 68.8942 35.5445 68.665L39.6761 63.3942L43.572 68.6546C43.6847 68.8733 44.0846 69.5713 44.8432 69.7483C44.956 69.7796 45.079 69.79 45.1918 69.79C45.6737 69.79 46.176 69.5713 46.6784 69.1338L52.1838 59.4046C54.5008 60.2275 56.8281 61.0296 59.1348 61.8838C62.7538 63.2171 64.9273 66.3733 65.1221 70.29C65.3784 75.5713 65.7167 80.8421 66.0243 86.1233C66.0755 86.9983 66.1063 87.8838 66.1371 88.8213H12.6411V88.8317Z" fill="#999999"/>
<path d="M30.589 18.4131C31.0008 18.4131 31.355 18.5794 31.5472 18.7323L31.959 18.1985C31.6048 17.9302 31.1106 17.7773 30.578 17.7773C29.5128 17.78 28.7578 18.4506 28.7578 19.3412C28.7578 20.2317 29.5128 20.905 30.578 20.905C31.1353 20.905 31.635 20.7468 31.9919 20.4597L31.5609 19.942L31.5389 19.9581C31.344 20.1084 30.9926 20.2693 30.5863 20.2693C29.9301 20.2693 29.4387 19.8991 29.4387 19.3412C29.4387 18.7832 29.9301 18.4131 30.5863 18.4131M37.6448 18.4131C38.0566 18.4131 38.4107 18.5794 38.6056 18.7323L39.0175 18.1985C38.6633 17.9302 38.1691 17.7773 37.6365 17.7773C36.5713 17.7773 35.8163 18.4479 35.8163 19.3385C35.8163 20.2291 36.5713 20.9023 37.6365 20.9023C38.1938 20.9023 38.6935 20.7441 39.0504 20.4571L38.6194 19.9394L38.5974 19.9555C38.4025 20.1057 38.0511 20.2666 37.6448 20.2666C36.9886 20.2666 36.4999 19.8964 36.4999 19.3385C36.4999 18.7806 36.9913 18.4104 37.6448 18.4104M44.2777 17.78C43.2152 17.78 42.4163 18.4506 42.4163 19.3412C42.4163 20.2317 43.2152 20.905 44.2777 20.905C45.3402 20.905 46.1391 20.2344 46.1391 19.3412C46.1391 18.4479 45.3402 17.78 44.2777 17.78ZM44.2777 20.272C43.5996 20.272 43.1274 19.8911 43.1274 19.3439C43.1274 18.7967 43.5996 18.4158 44.2777 18.4158C44.9558 18.4158 45.428 18.7967 45.428 19.3439C45.428 19.8911 44.9558 20.272 44.2777 20.272ZM48.4288 17.78C47.369 17.78 46.5674 18.4506 46.5674 19.3412C46.5674 20.2317 47.369 20.905 48.4288 20.905C49.4885 20.905 50.2902 20.2344 50.2902 19.3412C50.2902 18.4479 49.4913 17.78 48.4288 17.78ZM48.4288 20.272C47.7507 20.272 47.2784 19.8911 47.2784 19.3439C47.2784 18.7967 47.7507 18.4158 48.4288 18.4158C49.1069 18.4158 49.5791 18.7967 49.5791 19.3439C49.5791 19.8911 49.1069 20.272 48.4288 20.272Z" fill="#999999"/>
<path d="M42.6167 17.8417H41.6613L40.1348 19.2339V17.8417H39.465V20.8272H40.1348V19.419L41.7025 20.8299H42.6689L40.9749 19.3063L42.6167 17.8417ZM34.7373 19.6202C34.7373 19.8857 34.5809 20.2639 33.8643 20.2639C33.0352 20.2639 33.0269 19.7301 33.0269 19.6202V17.8444H32.3543V19.7462C32.3543 20.2559 32.8073 20.9077 33.8643 20.9077C34.9213 20.9077 35.41 20.2425 35.41 19.7462V17.8444H34.7373V19.6202Z" fill="#999999"/>
</g>
</g>
<defs>
<clipPath id="clip0_434_2820">
<rect width="80" height="80" fill="white"/>
</clipPath>
</defs>
</svg>
